NotoSans-VariableFont_wdth,wght-W400.ufo
<glyph name="exclam" format="2">
  <unicode hex="0021" />
  <advance width="269" />
  <outline>
    <contour>
      <point x="163" y="201" type="line" />
      <point x="106" y="201" type="line" />
      <point x="81" y="714" type="line" />
      <point x="188" y="714" type="line" />
    </contour>
    <contour>
      <point x="72" y="54" type="qcurve" />
      <point x="72" y="91" />
      <point x="108" y="121" />
      <point x="134" y="121" type="qcurve" />
      <point x="159" y="121" />
      <point x="196" y="91" />
      <point x="196" y="54" type="qcurve" />
      <point x="196" y="18" />
      <point x="159" y="-14" />
      <point x="134" y="-14" type="qcurve" />
      <point x="108" y="-14" />
      <point x="72" y="18" />
    </contour>
  </outline>
</glyph>
<glyph name="dollar" format="2">
  <unicode hex="0024" />
  <advance width="572" />
  <outline>
    <contour>
      <point x="253" y="49" type="line" />
      <point x="198" y="50" />
      <point x="94" y="67" />
      <point x="62" y="82" type="qcurve" />
      <point x="62" y="167" type="line" />
      <point x="96" y="151" />
      <point x="202" y="127" />
      <point x="253" y="126" type="qcurve" />
      <point x="253" y="328" type="line" />
      <point x="187" y="346" />
      <point x="103" y="393" />
      <point x="62" y="461" />
      <point x="62" y="508" type="qcurve" />
      <point x="62" y="557" />
      <point x="109" y="627" />
      <point x="195" y="668" />
      <point x="253" y="671" type="qcurve" />
      <point x="253" y="759" type="line" />
      <point x="317" y="759" type="line" />
      <point x="317" y="672" type="line" />
      <point x="370" y="671" />
      <point x="457" y="650" />
      <point x="493" y="635" type="qcurve" />
      <point x="466" y="561" type="line" />
      <point x="434" y="574" />
      <point x="357" y="593" />
      <point x="317" y="596" type="qcurve" />
      <point x="317" y="395" type="line" />
      <point x="383" y="376" />
      <point x="471" y="333" />
      <point x="516" y="270" />
      <point x="516" y="220" type="qcurve" />
      <point x="516" y="150" />
      <point x="412" y="63" />
      <point x="317" y="53" type="qcurve" />
      <point x="317" y="-58" type="line" />
      <point x="253" y="-58" type="line" />
    </contour>
    <contour>
      <point x="317" y="131" type="line" />
      <point x="376" y="137" />
      <point x="430" y="180" />
      <point x="430" y="214" type="qcurve" />
      <point x="430" y="239" />
      <point x="410" y="272" />
      <point x="361" y="296" />
      <point x="317" y="307" type="qcurve" />
    </contour>
    <contour>
      <point x="253" y="594" type="line" />
      <point x="217" y="592" />
      <point x="171" y="571" />
      <point x="148" y="537" />
      <point x="148" y="515" type="qcurve" />
      <point x="148" y="489" />
      <point x="167" y="452" />
      <point x="213" y="427" />
      <point x="253" y="417" type="qcurve" />
    </contour>
  </outline>
</glyph>
<glyph name="ampersand" format="2">
  <unicode hex="0026" />
  <advance width="732" />
  <outline>
    <contour>
      <point x="304" y="725" type="qcurve" />
      <point x="358" y="725" />
      <point x="435" y="688" />
      <point x="477" y="620" />
      <point x="477" y="571" type="qcurve" />
      <point x="477" y="508" />
      <point x="396" y="420" />
      <point x="334" y="384" type="qcurve" />
      <point x="527" y="198" type="line" />
      <point x="553" y="229" />
      <point x="586" y="310" />
      <point x="597" y="357" type="qcurve" />
      <point x="686" y="357" type="line" />
      <point x="670" y="293" />
      <point x="622" y="183" />
      <point x="584" y="142" type="qcurve" />
      <point x="730" y="0" type="line" />
      <point x="611" y="0" type="line" />
      <point x="524" y="84" type="line" />
      <point x="493" y="56" />
      <point x="421" y="14" />
      <point x="334" y="-10" />
      <point x="278" y="-10" type="qcurve" />
      <point x="209" y="-10" />
      <point x="108" y="35" />
      <point x="53" y="123" />
      <point x="53" y="186" type="qcurve" />
      <point x="53" y="237" />
      <point x="90" y="311" />
      <point x="160" y="369" />
      <point x="207" y="396" type="qcurve" />
      <point x="186" y="420" />
      <point x="146" y="472" />
      <point x="120" y="533" />
      <point x="120" y="569" type="qcurve" />
      <point x="120" y="618" />
      <point x="164" y="688" />
      <point x="247" y="725" />
    </contour>
    <contour>
      <point x="260" y="341" type="line" />
      <point x="224" y="320" />
      <point x="173" y="277" />
      <point x="145" y="225" />
      <point x="145" y="189" type="qcurve" />
      <point x="145" y="134" />
      <point x="219" y="68" />
      <point x="281" y="68" type="qcurve" />
      <point x="345" y="68" />
      <point x="437" y="110" />
      <point x="468" y="139" type="qcurve" />
    </contour>
    <contour>
      <point x="301" y="653" type="qcurve" />
      <point x="259" y="653" />
      <point x="206" y="609" />
      <point x="206" y="570" type="qcurve" />
      <point x="206" y="534" />
      <point x="244" y="473" />
      <point x="280" y="436" type="qcurve" />
      <point x="339" y="470" />
      <point x="390" y="531" />
      <point x="390" y="571" type="qcurve" />
      <point x="390" y="607" />
      <point x="342" y="653" />
    </contour>
  </outline>
</glyph>
<glyph name="parenleft" format="2">
  <unicode hex="0028" />
  <advance width="300" />
  <outline>
    <contour>
      <point x="40" y="274" type="qcurve" />
      <point x="40" y="356" />
      <point x="71" y="512" />
      <point x="137" y="654" />
      <point x="187" y="714" type="qcurve" />
      <point x="270" y="714" type="line" />
      <point x="200" y="620" />
      <point x="129" y="394" />
      <point x="129" y="275" type="qcurve" />
      <point x="129" y="198" />
      <point x="161" y="46" />
      <point x="223" y="-95" />
      <point x="269" y="-158" type="qcurve" />
      <point x="187" y="-158" type="line" />
      <point x="137" y="-99" />
      <point x="71" y="40" />
      <point x="40" y="194" />
    </contour>
  </outline>
</glyph>
<glyph name="parenright" format="2">
  <unicode hex="0029" />
  <advance width="300" />
  <outline>
    <contour>
      <point x="260" y="274" type="qcurve" />
      <point x="260" y="194" />
      <point x="229" y="40" />
      <point x="164" y="-99" />
      <point x="113" y="-158" type="qcurve" />
      <point x="31" y="-158" type="line" />
      <point x="77" y="-95" />
      <point x="139" y="46" />
      <point x="171" y="198" />
      <point x="171" y="275" type="qcurve" />
      <point x="171" y="354" />
      <point x="139" y="508" />
      <point x="77" y="652" />
      <point x="30" y="714" type="qcurve" />
      <point x="113" y="714" type="line" />
      <point x="164" y="654" />
      <point x="229" y="512" />
      <point x="260" y="356" />
    </contour>
  </outline>
</glyph>
<glyph name="plus" format="2">
  <unicode hex="002B" />
  <advance width="572" />
  <outline>
    <contour>
      <point x="321" y="388" type="line" />
      <point x="520" y="388" type="line" />
      <point x="520" y="317" type="line" />
      <point x="321" y="317" type="line" />
      <point x="321" y="111" type="line" />
      <point x="249" y="111" type="line" />
      <point x="249" y="317" type="line" />
      <point x="50" y="317" type="line" />
      <point x="50" y="388" type="line" />
      <point x="249" y="388" type="line" />
      <point x="249" y="595" type="line" />
      <point x="321" y="595" type="line" />
    </contour>
  </outline>
</glyph>
<glyph name="comma" format="2">
  <unicode hex="002C" />
  <advance width="268" />
  <outline>
    <contour>
      <point x="192" y="105" type="line" />
      <point x="183" y="70" />
      <point x="155" y="-12" />
      <point x="122" y="-93" />
      <point x="106" y="-129" type="qcurve" />
      <point x="41" y="-129" type="line" />
      <point x="51" y="-91" />
      <point x="70" y="-4" />
      <point x="86" y="81" />
      <point x="91" y="116" type="qcurve" />
      <point x="185" y="116" type="line" />
    </contour>
  </outline>
</glyph>
<glyph name="period" format="2">
  <unicode hex="002E" />
  <advance width="268" />
  <outline>
    <contour>
      <point x="72" y="54" type="qcurve" />
      <point x="72" y="91" />
      <point x="108" y="121" />
      <point x="133" y="121" type="qcurve" />
      <point x="159" y="121" />
      <point x="196" y="91" />
      <point x="196" y="54" type="qcurve" />
      <point x="196" y="18" />
      <point x="159" y="-14" />
      <point x="133" y="-14" type="qcurve" />
      <point x="108" y="-14" />
      <point x="72" y="18" />
    </contour>
  </outline>
</glyph>
<glyph name="slash" format="2">
  <unicode hex="002F" />
  <advance width="372" />
  <outline>
    <contour>
      <point x="362" y="714" type="line" />
      <point x="96" y="0" type="line" />
      <point x="10" y="0" type="line" />
      <point x="276" y="714" type="line" />
    </contour>
  </outline>
</glyph>
<glyph name="zero" format="2">
  <unicode hex="0030" />
  <advance width="572" />
  <outline>
    <contour>
      <point x="523" y="358" type="qcurve" />
      <point x="523" y="271" />
      <point x="497" y="135" />
      <point x="440" y="40" />
      <point x="349" y="-10" />
      <point x="285" y="-10" type="qcurve" />
      <point x="205" y="-10" />
      <point x="100" y="78" />
      <point x="49" y="243" />
      <point x="49" y="358" type="qcurve" />
      <point x="49" y="474" />
      <point x="96" y="638" />
      <point x="200" y="725" />
      <point x="285" y="725" type="qcurve" />
      <point x="365" y="725" />
      <point x="471" y="638" />
      <point x="523" y="474" />
    </contour>
    <contour>
      <point x="137" y="358" type="qcurve" />
      <point x="137" y="260" />
      <point x="166" y="130" />
      <point x="231" y="65" />
      <point x="285" y="65" type="qcurve" />
      <point x="339" y="65" />
      <point x="404" y="129" />
      <point x="434" y="260" />
      <point x="434" y="358" type="qcurve" />
      <point x="434" y="456" />
      <point x="404" y="585" />
      <point x="339" y="650" />
      <point x="285" y="650" type="qcurve" />
      <point x="231" y="650" />
      <point x="166" y="585" />
      <point x="137" y="456" />
    </contour>
  </outline>
</glyph>
<glyph name="one" format="2">
  <unicode hex="0031" />
  <advance width="572" />
  <outline>
    <contour>
      <point x="355" y="0" type="line" />
      <point x="269" y="0" type="line" />
      <point x="269" y="499" type="line" />
      <point x="269" y="528" />
      <point x="270" y="568" />
      <point x="272" y="603" />
      <point x="273" y="622" type="qcurve" />
      <point x="257" y="606" />
      <point x="231" y="584" />
      <point x="211" y="567" type="qcurve" />
      <point x="135" y="505" type="line" />
      <point x="89" y="564" type="line" />
      <point x="282" y="714" type="line" />
      <point x="355" y="714" type="line" />
    </contour>
  </outline>
</glyph>
<glyph name="two" format="2">
  <unicode hex="0032" />
  <advance width="572" />
  <outline>
    <contour>
      <point x="520" y="0" type="line" />
      <point x="48" y="0" type="line" />
      <point x="48" y="73" type="line" />
      <point x="235" y="262" type="line" />
      <point x="289" y="316" />
      <point x="363" y="400" />
      <point x="401" y="481" />
      <point x="401" y="529" type="qcurve" />
      <point x="401" y="588" />
      <point x="331" y="649" />
      <point x="275" y="649" type="qcurve" />
      <point x="223" y="649" />
      <point x="144" y="613" />
      <point x="103" y="581" type="qcurve" />
      <point x="56" y="640" type="line" />
      <point x="84" y="664" />
      <point x="151" y="702" />
      <point x="230" y="724" />
      <point x="275" y="724" type="qcurve" />
      <point x="342" y="724" />
      <point x="438" y="678" />
      <point x="491" y="593" />
      <point x="491" y="534" type="qcurve" />
      <point x="491" y="478" />
      <point x="445" y="380" />
      <point x="363" y="285" />
      <point x="308" y="231" type="qcurve" />
      <point x="159" y="84" type="line" />
      <point x="159" y="80" type="line" />
      <point x="520" y="80" type="line" />
    </contour>
  </outline>
</glyph>
<glyph name="three" format="2">
  <unicode hex="0033" />
  <advance width="572" />
  <outline>
    <contour>
      <point x="493" y="547" type="qcurve" />
      <point x="493" y="499" />
      <point x="457" y="429" />
      <point x="390" y="385" />
      <point x="345" y="376" type="qcurve" />
      <point x="345" y="372" type="line" />
      <point x="431" y="362" />
      <point x="515" y="274" />
      <point x="515" y="203" type="qcurve" />
      <point x="515" y="141" />
      <point x="457" y="44" />
      <point x="336" y="-10" />
      <point x="241" y="-10" type="qcurve" />
      <point x="185" y="-10" />
      <point x="89" y="7" />
      <point x="45" y="29" type="qcurve" />
      <point x="45" y="111" type="line" />
      <point x="90" y="89" />
      <point x="194" y="64" />
      <point x="242" y="64" type="qcurve" />
      <point x="338" y="64" />
      <point x="423" y="139" />
      <point x="423" y="205" type="qcurve" />
      <point x="423" y="250" />
      <point x="376" y="305" />
      <point x="286" y="331" />
      <point x="223" y="331" type="qcurve" />
      <point x="154" y="331" type="line" />
      <point x="154" y="406" type="line" />
      <point x="224" y="406" type="line" />
      <point x="283" y="406" />
      <point x="362" y="440" />
      <point x="403" y="501" />
      <point x="403" y="541" type="qcurve" />
      <point x="403" y="593" />
      <point x="333" y="650" />
      <point x="273" y="650" type="qcurve" />
      <point x="235" y="650" />
      <point x="173" y="635" />
      <point x="120" y="608" />
      <point x="93" y="590" type="qcurve" />
      <point x="49" y="650" type="line" />
      <point x="87" y="680" />
      <point x="200" y="724" />
      <point x="272" y="724" type="qcurve" />
      <point x="384" y="724" />
      <point x="493" y="624" />
    </contour>
  </outline>
</glyph>
<glyph name="four" format="2">
  <unicode hex="0034" />
  <advance width="572" />
  <outline>
    <contour>
      <point x="552" y="162" type="line" />
      <point x="448" y="162" type="line" />
      <point x="448" y="0" type="line" />
      <point x="363" y="0" type="line" />
      <point x="363" y="162" type="line" />
      <point x="21" y="162" type="line" />
      <point x="21" y="237" type="line" />
      <point x="357" y="718" type="line" />
      <point x="448" y="718" type="line" />
      <point x="448" y="241" type="line" />
      <point x="552" y="241" type="line" />
    </contour>
    <contour>
      <point x="363" y="466" type="line" />
      <point x="363" y="492" />
      <point x="364" y="535" />
      <point x="366" y="573" />
      <point x="367" y="608" />
      <point x="368" y="624" type="qcurve" />
      <point x="364" y="624" type="line" />
      <point x="356" y="605" />
      <point x="332" y="561" />
      <point x="321" y="546" type="qcurve" />
      <point x="107" y="241" type="line" />
      <point x="363" y="241" type="line" />
    </contour>
  </outline>
</glyph>
<glyph name="five" format="2">
  <unicode hex="0035" />
  <advance width="572" />
  <outline>
    <contour>
      <point x="275" y="438" type="qcurve" />
      <point x="348" y="438" />
      <point x="456" y="388" />
      <point x="515" y="295" />
      <point x="515" y="228" type="qcurve" />
      <point x="515" y="154" />
      <point x="451" y="47" />
      <point x="332" y="-10" />
      <point x="248" y="-10" type="qcurve" />
      <point x="193" y="-10" />
      <point x="96" y="10" />
      <point x="63" y="29" type="qcurve" />
      <point x="63" y="112" type="line" />
      <point x="99" y="90" />
      <point x="202" y="65" />
      <point x="249" y="65" type="qcurve" />
      <point x="302" y="65" />
      <point x="381" y="98" />
      <point x="425" y="167" />
      <point x="425" y="219" type="qcurve" />
      <point x="425" y="289" />
      <point x="339" y="364" />
      <point x="246" y="364" type="qcurve" />
      <point x="218" y="364" />
      <point x="146" y="354" />
      <point x="124" y="349" type="qcurve" />
      <point x="80" y="377" type="line" />
      <point x="107" y="714" type="line" />
      <point x="465" y="714" type="line" />
      <point x="465" y="634" type="line" />
      <point x="182" y="634" type="line" />
      <point x="165" y="427" type="line" />
      <point x="182" y="430" />
      <point x="240" y="438" />
    </contour>
  </outline>
</glyph>
<glyph name="six" format="2">
  <unicode hex="0036" />
  <advance width="572" />
  <outline>
    <contour>
      <point x="55" y="305" type="qcurve" />
      <point x="55" y="367" />
      <point x="72" y="487" />
      <point x="114" y="594" />
      <point x="188" y="677" />
      <point x="301" y="724" />
      <point x="382" y="724" type="qcurve" />
      <point x="403" y="724" />
      <point x="454" y="720" />
      <point x="470" y="715" type="qcurve" />
      <point x="470" y="640" type="line" />
      <point x="452" y="646" />
      <point x="407" y="652" />
      <point x="384" y="652" type="qcurve" />
      <point x="315" y="652" />
      <point x="223" y="606" />
      <point x="170" y="526" />
      <point x="146" y="422" />
      <point x="143" y="363" type="qcurve" />
      <point x="149" y="363" type="line" />
      <point x="164" y="387" />
      <point x="210" y="425" />
      <point x="275" y="447" />
      <point x="318" y="447" type="qcurve" />
      <point x="380" y="447" />
      <point x="473" y="396" />
      <point x="525" y="299" />
      <point x="525" y="230" type="qcurve" />
      <point x="525" y="156" />
      <point x="469" y="48" />
      <point x="368" y="-10" />
      <point x="298" y="-10" type="qcurve" />
      <point x="247" y="-10" />
      <point x="159" y="28" />
      <point x="92" y="106" />
      <point x="55" y="225" />
    </contour>
    <contour>
      <point x="297" y="64" type="qcurve" />
      <point x="360" y="64" />
      <point x="438" y="145" />
      <point x="438" y="230" type="qcurve" />
      <point x="438" y="298" />
      <point x="369" y="378" />
      <point x="300" y="378" type="qcurve" />
      <point x="253" y="378" />
      <point x="183" y="339" />
      <point x="144" y="279" />
      <point x="144" y="247" type="qcurve" />
      <point x="144" y="214" />
      <point x="163" y="150" />
      <point x="202" y="96" />
      <point x="259" y="64" />
    </contour>
  </outline>
</glyph>
<glyph name="seven" format="2">
  <unicode hex="0037" />
  <advance width="572" />
  <outline>
    <contour>
      <point x="136" y="0" type="line" />
      <point x="429" y="634" type="line" />
      <point x="44" y="634" type="line" />
      <point x="44" y="714" type="line" />
      <point x="523" y="714" type="line" />
      <point x="523" y="646" type="line" />
      <point x="233" y="0" type="line" />
    </contour>
  </outline>
</glyph>
<glyph name="colon" format="2">
  <unicode hex="003A" />
  <advance width="268" />
  <outline>
    <contour>
      <point x="72" y="54" type="qcurve" />
      <point x="72" y="91" />
      <point x="108" y="121" />
      <point x="133" y="121" type="qcurve" />
      <point x="159" y="121" />
      <point x="196" y="91" />
      <point x="196" y="54" type="qcurve" />
      <point x="196" y="18" />
      <point x="159" y="-14" />
      <point x="133" y="-14" type="qcurve" />
      <point x="108" y="-14" />
      <point x="72" y="18" />
    </contour>
    <contour>
      <point x="72" y="482" type="qcurve" />
      <point x="72" y="520" />
      <point x="108" y="550" />
      <point x="133" y="550" type="qcurve" />
      <point x="159" y="550" />
      <point x="196" y="520" />
      <point x="196" y="482" type="qcurve" />
      <point x="196" y="446" />
      <point x="159" y="414" />
      <point x="133" y="414" type="qcurve" />
      <point x="108" y="414" />
      <point x="72" y="446" />
    </contour>
  </outline>
</glyph>
<glyph name="semicolon" format="2">
  <unicode hex="003B" />
  <advance width="268" />
  <outline>
    <contour>
      <point x="183" y="105" type="line" />
      <point x="174" y="70" />
      <point x="146" y="-12" />
      <point x="113" y="-93" />
      <point x="97" y="-129" type="qcurve" />
      <point x="31" y="-129" type="line" />
      <point x="38" y="-101" />
      <point x="53" y="-37" />
      <point x="67" y="28" />
      <point x="78" y="90" />
      <point x="82" y="116" type="qcurve" />
      <point x="176" y="116" type="line" />
    </contour>
    <contour>
      <point x="70" y="482" type="qcurve" />
      <point x="70" y="520" />
      <point x="106" y="550" />
      <point x="131" y="550" type="qcurve" />
      <point x="157" y="550" />
      <point x="194" y="520" />
      <point x="194" y="482" type="qcurve" />
      <point x="194" y="446" />
      <point x="157" y="414" />
      <point x="131" y="414" type="qcurve" />
      <point x="106" y="414" />
      <point x="70" y="446" />
    </contour>
  </outline>
</glyph>
<glyph name="less" format="2">
  <unicode hex="003C" />
  <advance width="572" />
  <outline>
    <contour>
      <point x="521" y="116" type="line" />
      <point x="50" y="323" type="line" />
      <point x="50" y="373" type="line" />
      <point x="521" y="608" type="line" />
      <point x="521" y="530" type="line" />
      <point x="144" y="352" type="line" />
      <point x="521" y="194" type="line" />
    </contour>
  </outline>
</glyph>
<glyph name="greater" format="2">
  <unicode hex="003E" />
  <advance width="572" />
  <outline>
    <contour>
      <point x="50" y="194" type="line" />
      <point x="427" y="351" type="line" />
      <point x="50" y="530" type="line" />
      <point x="50" y="608" type="line" />
      <point x="521" y="373" type="line" />
      <point x="521" y="323" type="line" />
      <point x="50" y="116" type="line" />
    </contour>
  </outline>
</glyph>
<glyph name="question" format="2">
  <unicode hex="003F" />
  <advance width="434" />
  <outline>
    <contour>
      <point x="140" y="228" type="line" />
      <point x="140" y="266" />
      <point x="155" y="321" />
      <point x="192" y="371" />
      <point x="224" y="398" type="qcurve" />
      <point x="263" y="431" />
      <point x="306" y="475" />
      <point x="324" y="517" />
      <point x="324" y="547" type="qcurve" />
      <point x="324" y="595" />
      <point x="262" y="647" />
      <point x="203" y="647" type="qcurve" />
      <point x="154" y="647" />
      <point x="78" y="622" />
      <point x="43" y="605" type="qcurve" />
      <point x="12" y="675" type="line" />
      <point x="52" y="696" />
      <point x="149" y="724" />
      <point x="209" y="724" type="qcurve" />
      <point x="304" y="724" />
      <point x="408" y="630" />
      <point x="408" y="549" type="qcurve" />
      <point x="408" y="504" />
      <point x="379" y="441" />
      <point x="326" y="388" />
      <point x="290" y="358" type="qcurve" />
      <point x="257" y="330" />
      <point x="222" y="288" />
      <point x="210" y="247" />
      <point x="210" y="218" type="qcurve" />
      <point x="210" y="201" type="line" />
      <point x="140" y="201" type="line" />
    </contour>
    <contour>
      <point x="117" y="54" type="qcurve" />
      <point x="117" y="91" />
      <point x="152" y="121" />
      <point x="179" y="121" type="qcurve" />
      <point x="204" y="121" />
      <point x="240" y="91" />
      <point x="240" y="54" type="qcurve" />
      <point x="240" y="18" />
      <point x="204" y="-14" />
      <point x="179" y="-14" type="qcurve" />
      <point x="152" y="-14" />
      <point x="117" y="18" />
    </contour>
  </outline>
</glyph>
<glyph name="at" format="2">
  <unicode hex="0040" />
  <advance width="899" />
  <outline>
    <contour>
      <point x="841" y="357" type="qcurve" />
      <point x="841" y="311" />
      <point x="820" y="223" />
      <point x="776" y="152" />
      <point x="712" y="109" />
      <point x="668" y="109" type="qcurve" />
      <point x="622" y="109" />
      <point x="569" y="162" />
      <point x="563" y="196" type="qcurve" />
      <point x="558" y="196" type="line" />
      <point x="540" y="159" />
      <point x="470" y="109" />
      <point x="417" y="109" type="qcurve" />
      <point x="341" y="109" />
      <point x="258" y="211" />
      <point x="258" y="295" type="qcurve" />
      <point x="258" y="361" />
      <point x="310" y="462" />
      <point x="405" y="520" />
      <point x="470" y="520" type="qcurve" />
      <point x="514" y="520" />
      <point x="599" y="505" />
      <point x="623" y="496" type="qcurve" />
      <point x="613" y="293" type="line" />
      <point x="612" y="275" />
      <point x="612" y="260" />
      <point x="612" y="257" type="qcurve" />
      <point x="612" y="205" />
      <point x="649" y="171" />
      <point x="674" y="171" type="qcurve" />
      <point x="705" y="171" />
      <point x="748" y="222" />
      <point x="771" y="307" />
      <point x="771" y="358" type="qcurve" />
      <point x="771" y="451" />
      <point x="696" y="580" />
      <point x="565" y="648" />
      <point x="482" y="648" type="qcurve" />
      <point x="397" y="648" />
      <point x="265" y="594" />
      <point x="176" y="496" />
      <point x="130" y="363" />
      <point x="130" y="283" type="qcurve" />
      <point x="130" y="185" />
      <point x="200" y="48" />
      <point x="335" y="-23" />
      <point x="433" y="-23" type="qcurve" />
      <point x="494" y="-23" />
      <point x="605" y="4" />
      <point x="648" y="20" type="qcurve" />
      <point x="648" y="-48" type="line" />
      <point x="605" y="-66" />
      <point x="498" y="-89" />
      <point x="433" y="-89" type="qcurve" />
      <point x="315" y="-89" />
      <point x="147" y="-1" />
      <point x="58" y="164" />
      <point x="58" y="280" type="qcurve" />
      <point x="58" y="373" />
      <point x="116" y="532" />
      <point x="226" y="649" />
      <point x="383" y="714" />
      <point x="482" y="714" type="qcurve" />
      <point x="560" y="714" />
      <point x="691" y="665" />
      <point x="788" y="572" />
      <point x="841" y="440" />
    </contour>
    <contour>
      <point x="336" y="293" type="qcurve" />
      <point x="336" y="229" />
      <point x="387" y="171" />
      <point x="430" y="171" type="qcurve" />
      <point x="486" y="171" />
      <point x="535" y="255" />
      <point x="539" y="322" type="qcurve" />
      <point x="545" y="447" type="line" />
      <point x="532" y="451" />
      <point x="492" y="457" />
      <point x="471" y="457" type="qcurve" />
      <point x="422" y="457" />
      <point x="362" y="409" />
      <point x="336" y="334" />
    </contour>
  </outline>
</glyph>
<glyph name="D" format="2">
  <unicode hex="0044" />
  <advance width="730" />
  <outline>
    <contour>
      <point x="669" y="364" type="qcurve" />
      <point x="669" y="244" />
      <point x="580" y="82" />
      <point x="414" y="0" />
      <point x="296" y="0" type="qcurve" />
      <point x="97" y="0" type="line" />
      <point x="97" y="714" type="line" />
      <point x="317" y="714" type="line" />
      <point x="425" y="714" />
      <point x="583" y="634" />
      <point x="669" y="479" />
    </contour>
    <contour>
      <point x="574" y="361" type="qcurve" />
      <point x="574" y="456" />
      <point x="511" y="578" />
      <point x="390" y="637" />
      <point x="304" y="637" type="qcurve" />
      <point x="187" y="637" type="line" />
      <point x="187" y="77" type="line" />
      <point x="284" y="77" type="line" />
      <point x="429" y="77" />
      <point x="574" y="220" />
    </contour>
  </outline>
</glyph>
<glyph name="E" format="2">
  <unicode hex="0045" />
  <advance width="556" />
  <outline>
    <contour>
      <point x="496" y="0" type="line" />
      <point x="97" y="0" type="line" />
      <point x="97" y="714" type="line" />
      <point x="496" y="714" type="line" />
      <point x="496" y="635" type="line" />
      <point x="187" y="635" type="line" />
      <point x="187" y="412" type="line" />
      <point x="478" y="412" type="line" />
      <point x="478" y="334" type="line" />
      <point x="187" y="334" type="line" />
      <point x="187" y="79" type="line" />
      <point x="496" y="79" type="line" />
    </contour>
  </outline>
</glyph>
<glyph name="F" format="2">
  <unicode hex="0046" />
  <advance width="519" />
  <outline>
    <contour>
      <point x="187" y="0" type="line" />
      <point x="97" y="0" type="line" />
      <point x="97" y="714" type="line" />
      <point x="496" y="714" type="line" />
      <point x="496" y="635" type="line" />
      <point x="187" y="635" type="line" />
      <point x="187" y="382" type="line" />
      <point x="477" y="382" type="line" />
      <point x="477" y="303" type="line" />
      <point x="187" y="303" type="line" />
    </contour>
  </outline>
</glyph>
<glyph name="G" format="2">
  <unicode hex="0047" />
  <advance width="728" />
  <outline>
    <contour>
      <point x="407" y="377" type="line" />
      <point x="654" y="377" type="line" />
      <point x="654" y="27" type="line" />
      <point x="596" y="8" />
      <point x="478" y="-10" />
      <point x="403" y="-10" type="qcurve" />
      <point x="292" y="-10" />
      <point x="140" y="79" />
      <point x="61" y="244" />
      <point x="61" y="357" type="qcurve" />
      <point x="61" y="469" />
      <point x="149" y="633" />
      <point x="314" y="724" />
      <point x="431" y="724" type="qcurve" />
      <point x="491" y="724" />
      <point x="598" y="702" />
      <point x="644" y="682" type="qcurve" />
      <point x="610" y="604" type="line" />
      <point x="572" y="621" />
      <point x="477" y="645" />
      <point x="426" y="645" type="qcurve" />
      <point x="341" y="645" />
      <point x="219" y="575" />
      <point x="155" y="446" />
      <point x="155" y="357" type="qcurve" />
      <point x="155" y="272" />
      <point x="210" y="141" />
      <point x="328" y="68" />
      <point x="424" y="68" type="qcurve" />
      <point x="471" y="68" />
      <point x="537" y="78" />
      <point x="564" y="85" type="qcurve" />
      <point x="564" y="297" type="line" />
      <point x="407" y="297" type="line" />
    </contour>
  </outline>
</glyph>
<glyph name="H" format="2">
  <unicode hex="0048" />
  <advance width="741" />
  <outline>
    <contour>
      <point x="643" y="0" type="line" />
      <point x="553" y="0" type="line" />
      <point x="553" y="333" type="line" />
      <point x="187" y="333" type="line" />
      <point x="187" y="0" type="line" />
      <point x="97" y="0" type="line" />
      <point x="97" y="714" type="line" />
      <point x="187" y="714" type="line" />
      <point x="187" y="412" type="line" />
      <point x="553" y="412" type="line" />
      <point x="553" y="714" type="line" />
      <point x="643" y="714" type="line" />
    </contour>
  </outline>
</glyph>
<glyph name="I" format="2">
  <unicode hex="0049" />
  <advance width="339" />
  <outline>
    <contour>
      <point x="298" y="0" type="line" />
      <point x="40" y="0" type="line" />
      <point x="40" y="52" type="line" />
      <point x="124" y="71" type="line" />
      <point x="124" y="642" type="line" />
      <point x="40" y="662" type="line" />
      <point x="40" y="714" type="line" />
      <point x="298" y="714" type="line" />
      <point x="298" y="662" type="line" />
      <point x="214" y="642" type="line" />
      <point x="214" y="71" type="line" />
      <point x="298" y="52" type="line" />
    </contour>
  </outline>
</glyph>
<glyph name="K" format="2">
  <unicode hex="004B" />
  <advance width="619" />
  <outline>
    <contour>
      <point x="619" y="0" type="line" />
      <point x="513" y="0" type="line" />
      <point x="260" y="341" type="line" />
      <point x="187" y="277" type="line" />
      <point x="187" y="0" type="line" />
      <point x="97" y="0" type="line" />
      <point x="97" y="714" type="line" />
      <point x="187" y="714" type="line" />
      <point x="187" y="362" type="line" />
      <point x="217" y="396" />
      <point x="279" y="464" />
      <point x="310" y="498" type="qcurve" />
      <point x="503" y="714" type="line" />
      <point x="608" y="714" type="line" />
      <point x="325" y="403" type="line" />
    </contour>
  </outline>
</glyph>
<glyph name="L" format="2">
  <unicode hex="004C" />
  <advance width="524" />
  <outline>
    <contour>
      <point x="97" y="0" type="line" />
      <point x="97" y="714" type="line" />
      <point x="187" y="714" type="line" />
      <point x="187" y="80" type="line" />
      <point x="499" y="80" type="line" />
      <point x="499" y="0" type="line" />
    </contour>
  </outline>
</glyph>
<glyph name="W" format="2">
  <unicode hex="0057" />
  <advance width="930" />
  <outline>
    <contour>
      <point x="917" y="714" type="line" />
      <point x="727" y="0" type="line" />
      <point x="636" y="0" type="line" />
      <point x="497" y="468" type="line" />
      <point x="491" y="489" />
      <point x="479" y="533" />
      <point x="469" y="573" />
      <point x="462" y="602" />
      <point x="461" y="609" type="qcurve" />
      <point x="460" y="602" />
      <point x="455" y="573" />
      <point x="445" y="533" />
      <point x="434" y="488" />
      <point x="427" y="465" type="qcurve" />
      <point x="292" y="0" type="line" />
      <point x="201" y="0" type="line" />
      <point x="12" y="714" type="line" />
      <point x="106" y="714" type="line" />
      <point x="217" y="278" type="line" />
      <point x="223" y="255" />
      <point x="233" y="210" />
      <point x="242" y="167" />
      <point x="248" y="127" />
      <point x="251" y="108" type="qcurve" />
      <point x="254" y="128" />
      <point x="261" y="170" />
      <point x="271" y="215" />
      <point x="283" y="261" />
      <point x="289" y="283" type="qcurve" />
      <point x="415" y="714" type="line" />
      <point x="508" y="714" type="line" />
      <point x="639" y="280" type="line" />
      <point x="646" y="257" />
      <point x="658" y="210" />
      <point x="668" y="166" />
      <point x="675" y="125" />
      <point x="678" y="108" type="qcurve" />
      <point x="681" y="133" />
      <point x="691" y="188" />
      <point x="705" y="248" />
      <point x="713" y="279" type="qcurve" />
      <point x="823" y="714" type="line" />
    </contour>
  </outline>
</glyph>
<glyph name="Y" format="2">
  <unicode hex="0059" />
  <advance width="566" />
  <outline>
    <contour>
      <point x="283" y="363" type="line" />
      <point x="469" y="714" type="line" />
      <point x="566" y="714" type="line" />
      <point x="328" y="277" type="line" />
      <point x="328" y="0" type="line" />
      <point x="238" y="0" type="line" />
      <point x="238" y="273" type="line" />
      <point x="0" y="714" type="line" />
      <point x="98" y="714" type="line" />
    </contour>
  </outline>
</glyph>
<glyph name="asciicircum" format="2">
  <unicode hex="005E" />
  <advance width="572" />
  <outline>
    <contour>
      <point x="38" y="267" type="line" />
      <point x="250" y="719" type="line" />
      <point x="300" y="719" type="line" />
      <point x="534" y="267" type="line" />
      <point x="456" y="267" type="line" />
      <point x="276" y="626" type="line" />
      <point x="116" y="267" type="line" />
    </contour>
  </outline>
</glyph>
<glyph name="underscore" format="2">
  <unicode hex="005F" />
  <advance width="444" />
  <outline>
    <contour>
      <point x="446" y="-154" type="line" />
      <point x="-2" y="-154" type="line" />
      <point x="-2" y="-90" type="line" />
      <point x="446" y="-90" type="line" />
    </contour>
  </outline>
</glyph>
<glyph name="grave" format="2">
  <unicode hex="0060" />
  <advance width="281" />
  <outline>
    <contour>
      <point x="145" y="766" type="line" />
      <point x="156" y="744" />
      <point x="189" y="689" />
      <point x="226" y="637" />
      <point x="241" y="618" type="qcurve" />
      <point x="241" y="606" type="line" />
      <point x="182" y="606" type="line" />
      <point x="165" y="620" />
      <point x="123" y="659" />
      <point x="82" y="702" />
      <point x="49" y="742" />
      <point x="40" y="756" type="qcurve" />
      <point x="40" y="766" type="line" />
    </contour>
  </outline>
</glyph>
<glyph name="g" format="2">
  <unicode hex="0067" />
  <advance width="615" />
  <outline>
    <contour>
      <point x="275" y="546" type="qcurve" />
      <point x="328" y="546" />
      <point x="413" y="506" />
      <point x="443" y="465" type="qcurve" />
      <point x="448" y="465" type="line" />
      <point x="460" y="536" type="line" />
      <point x="530" y="536" type="line" />
      <point x="530" y="-9" type="line" />
      <point x="530" y="-85" />
      <point x="478" y="-188" />
      <point x="372" y="-240" />
      <point x="290" y="-240" type="qcurve" />
      <point x="232" y="-240" />
      <point x="135" y="-223" />
      <point x="97" y="-206" type="qcurve" />
      <point x="97" y="-125" type="line" />
      <point x="135" y="-145" />
      <point x="237" y="-167" />
      <point x="295" y="-167" type="qcurve" />
      <point x="364" y="-167" />
      <point x="443" y="-86" />
      <point x="443" y="-16" type="qcurve" />
      <point x="443" y="5" type="line" />
      <point x="443" y="17" />
      <point x="445" y="62" />
      <point x="446" y="71" type="qcurve" />
      <point x="442" y="71" type="line" />
      <point x="414" y="30" />
      <point x="331" y="-10" />
      <point x="276" y="-10" type="qcurve" />
      <point x="172" y="-10" />
      <point x="55" y="136" />
      <point x="55" y="267" type="qcurve" />
      <point x="55" y="395" />
      <point x="172" y="546" />
    </contour>
    <contour>
      <point x="287" y="472" type="qcurve" />
      <point x="242" y="472" />
      <point x="179" y="424" />
      <point x="146" y="332" />
      <point x="146" y="266" type="qcurve" />
      <point x="146" y="167" />
      <point x="219" y="62" />
      <point x="289" y="62" type="qcurve" />
      <point x="330" y="62" />
      <point x="388" y="83" />
      <point x="426" y="128" />
      <point x="444" y="198" />
      <point x="444" y="246" type="qcurve" />
      <point x="444" y="267" type="line" />
      <point x="444" y="340" />
      <point x="411" y="430" />
      <point x="341" y="472" />
    </contour>
  </outline>
</glyph>
<glyph name="h" format="2">
  <unicode hex="0068" />
  <advance width="618" />
  <outline>
    <contour>
      <point x="173" y="537" type="line" />
      <point x="173" y="518" />
      <point x="170" y="478" />
      <point x="168" y="462" type="qcurve" />
      <point x="174" y="462" type="line" />
      <point x="191" y="490" />
      <point x="243" y="526" />
      <point x="307" y="545" />
      <point x="341" y="545" type="qcurve" />
      <point x="406" y="545" />
      <point x="493" y="504" />
      <point x="537" y="418" />
      <point x="537" y="349" type="qcurve" />
      <point x="537" y="0" type="line" />
      <point x="450" y="0" type="line" />
      <point x="450" y="343" type="line" />
      <point x="450" y="408" />
      <point x="392" y="472" />
      <point x="330" y="472" type="qcurve" />
      <point x="270" y="472" />
      <point x="202" y="427" />
      <point x="173" y="340" />
      <point x="173" y="277" type="qcurve" />
      <point x="173" y="0" type="line" />
      <point x="85" y="0" type="line" />
      <point x="85" y="760" type="line" />
      <point x="173" y="760" type="line" />
    </contour>
  </outline>
</glyph>
<glyph name="i" format="2">
  <unicode hex="0069" />
  <advance width="258" />
  <outline>
    <contour>
      <point x="173" y="536" type="line" />
      <point x="173" y="0" type="line" />
      <point x="85" y="0" type="line" />
      <point x="85" y="536" type="line" />
    </contour>
    <contour>
      <point x="130" y="737" type="qcurve" />
      <point x="150" y="737" />
      <point x="181" y="710" />
      <point x="181" y="681" type="qcurve" />
      <point x="181" y="653" />
      <point x="150" y="625" />
      <point x="130" y="625" type="qcurve" />
      <point x="108" y="625" />
      <point x="78" y="653" />
      <point x="78" y="681" type="qcurve" />
      <point x="78" y="710" />
      <point x="108" y="737" />
    </contour>
  </outline>
</glyph>
<glyph name="j" format="2">
  <unicode hex="006A" />
  <advance width="258" />
  <outline>
    <contour>
      <point x="22" y="-240" type="qcurve" />
      <point x="-3" y="-240" />
      <point x="-41" y="-233" />
      <point x="-55" y="-228" type="qcurve" />
      <point x="-55" y="-157" type="line" />
      <point x="-40" y="-161" />
      <point x="-8" y="-167" />
      <point x="11" y="-167" type="qcurve" />
      <point x="43" y="-167" />
      <point x="85" y="-132" />
      <point x="85" y="-83" type="qcurve" />
      <point x="85" y="536" type="line" />
      <point x="173" y="536" type="line" />
      <point x="173" y="-80" type="line" />
      <point x="173" y="-130" />
      <point x="141" y="-202" />
      <point x="75" y="-240" />
    </contour>
    <contour>
      <point x="78" y="681" type="qcurve" />
      <point x="78" y="710" />
      <point x="108" y="737" />
      <point x="130" y="737" type="qcurve" />
      <point x="150" y="737" />
      <point x="181" y="710" />
      <point x="181" y="681" type="qcurve" />
      <point x="181" y="653" />
      <point x="150" y="625" />
      <point x="130" y="625" type="qcurve" />
      <point x="108" y="625" />
      <point x="78" y="653" />
    </contour>
  </outline>
</glyph>
<glyph name="l" format="2">
  <unicode hex="006C" />
  <advance width="258" />
  <outline>
    <contour>
      <point x="173" y="0" type="line" />
      <point x="85" y="0" type="line" />
      <point x="85" y="760" type="line" />
      <point x="173" y="760" type="line" />
    </contour>
  </outline>
</glyph>
<glyph name="n" format="2">
  <unicode hex="006E" />
  <advance width="618" />
  <outline>
    <contour>
      <point x="343" y="546" type="qcurve" />
      <point x="439" y="546" />
      <point x="537" y="453" />
      <point x="537" y="349" type="qcurve" />
      <point x="537" y="0" type="line" />
      <point x="450" y="0" type="line" />
      <point x="450" y="343" type="line" />
      <point x="450" y="408" />
      <point x="392" y="472" />
      <point x="330" y="472" type="qcurve" />
      <point x="241" y="472" />
      <point x="173" y="372" />
      <point x="173" y="278" type="qcurve" />
      <point x="173" y="0" type="line" />
      <point x="85" y="0" type="line" />
      <point x="85" y="536" type="line" />
      <point x="156" y="536" type="line" />
      <point x="169" y="463" type="line" />
      <point x="174" y="463" type="line" />
      <point x="192" y="491" />
      <point x="245" y="528" />
      <point x="309" y="546" />
    </contour>
  </outline>
</glyph>
<glyph name="r" format="2">
  <unicode hex="0072" />
  <advance width="413" />
  <outline>
    <contour>
      <point x="335" y="546" type="qcurve" />
      <point x="350" y="546" />
      <point x="385" y="543" />
      <point x="398" y="540" type="qcurve" />
      <point x="387" y="459" type="line" />
      <point x="374" y="462" />
      <point x="343" y="466" />
      <point x="329" y="466" type="qcurve" />
      <point x="298" y="466" />
      <point x="242" y="440" />
      <point x="198" y="393" />
      <point x="173" y="327" />
      <point x="173" y="286" type="qcurve" />
      <point x="173" y="0" type="line" />
      <point x="85" y="0" type="line" />
      <point x="85" y="536" type="line" />
      <point x="157" y="536" type="line" />
      <point x="167" y="438" type="line" />
      <point x="171" y="438" type="line" />
      <point x="188" y="468" />
      <point x="236" y="517" />
      <point x="298" y="546" />
    </contour>
  </outline>
</glyph>
<glyph name="u" format="2">
  <unicode hex="0075" />
  <advance width="618" />
  <outline>
    <contour>
      <point x="533" y="536" type="line" />
      <point x="533" y="0" type="line" />
      <point x="461" y="0" type="line" />
      <point x="448" y="71" type="line" />
      <point x="444" y="71" type="line" />
      <point x="427" y="43" />
      <point x="373" y="7" />
      <point x="309" y="-10" />
      <point x="274" y="-10" type="qcurve" />
      <point x="210" y="-10" />
      <point x="123" y="31" />
      <point x="79" y="117" />
      <point x="79" y="185" type="qcurve" />
      <point x="79" y="536" type="line" />
      <point x="168" y="536" type="line" />
      <point x="168" y="191" type="line" />
      <point x="168" y="127" />
      <point x="226" y="63" />
      <point x="287" y="63" type="qcurve" />
      <point x="347" y="63" />
      <point x="416" y="108" />
      <point x="445" y="195" />
      <point x="445" y="257" type="qcurve" />
      <point x="445" y="536" type="line" />
    </contour>
  </outline>
</glyph>
<glyph name="v" format="2">
  <unicode hex="0076" />
  <advance width="508" />
  <outline>
    <contour>
      <point x="203" y="0" type="line" />
      <point x="0" y="536" type="line" />
      <point x="94" y="536" type="line" />
      <point x="208" y="220" type="line" />
      <point x="216" y="198" />
      <point x="234" y="144" />
      <point x="248" y="95" />
      <point x="251" y="78" type="qcurve" />
      <point x="255" y="78" type="line" />
      <point x="259" y="95" />
      <point x="274" y="145" />
      <point x="293" y="199" />
      <point x="300" y="220" type="qcurve" />
      <point x="414" y="536" type="line" />
      <point x="508" y="536" type="line" />
      <point x="304" y="0" type="line" />
    </contour>
  </outline>
</glyph>
<glyph name="w" format="2">
  <unicode hex="0077" />
  <advance width="786" />
  <outline>
    <contour>
      <point x="431" y="303" type="line" />
      <point x="425" y="324" />
      <point x="413" y="365" />
      <point x="404" y="402" />
      <point x="396" y="434" />
      <point x="394" y="445" type="qcurve" />
      <point x="390" y="445" type="line" />
      <point x="388" y="434" />
      <point x="381" y="402" />
      <point x="372" y="364" />
      <point x="361" y="323" />
      <point x="354" y="302" type="qcurve" />
      <point x="258" y="1" type="line" />
      <point x="158" y="1" type="line" />
      <point x="11" y="537" type="line" />
      <point x="102" y="537" type="line" />
      <point x="176" y="251" type="line" />
      <point x="184" y="222" />
      <point x="198" y="163" />
      <point x="209" y="110" />
      <point x="211" y="91" type="qcurve" />
      <point x="215" y="91" type="line" />
      <point x="218" y="103" />
      <point x="226" y="139" />
      <point x="235" y="179" />
      <point x="246" y="219" />
      <point x="251" y="235" type="qcurve" />
      <point x="346" y="537" type="line" />
      <point x="442" y="537" type="line" />
      <point x="534" y="235" type="line" />
      <point x="541" y="212" />
      <point x="556" y="160" />
      <point x="568" y="111" />
      <point x="570" y="92" type="qcurve" />
      <point x="574" y="92" type="line" />
      <point x="576" y="109" />
      <point x="587" y="160" />
      <point x="602" y="221" />
      <point x="610" y="251" type="qcurve" />
      <point x="685" y="537" type="line" />
      <point x="775" y="537" type="line" />
      <point x="626" y="1" type="line" />
      <point x="523" y="1" type="line" />
    </contour>
  </outline>
</glyph>
<glyph name="y" format="2">
  <unicode hex="0079" />
  <advance width="510" />
  <outline>
    <contour>
      <point x="1" y="536" type="line" />
      <point x="95" y="536" type="line" />
      <point x="211" y="231" type="line" />
      <point x="221" y="204" />
      <point x="238" y="154" />
      <point x="252" y="107" />
      <point x="256" y="85" type="qcurve" />
      <point x="260" y="85" type="line" />
      <point x="266" y="110" />
      <point x="292" y="191" />
      <point x="306" y="232" type="qcurve" />
      <point x="415" y="536" type="line" />
      <point x="510" y="536" type="line" />
      <point x="279" y="-74" type="line" />
      <point x="260" y="-124" />
      <point x="209" y="-199" />
      <point x="136" y="-240" />
      <point x="84" y="-240" type="qcurve" />
      <point x="60" y="-240" />
      <point x="24" y="-235" />
      <point x="11" y="-232" type="qcurve" />
      <point x="11" y="-162" type="line" />
      <point x="22" y="-164" />
      <point x="53" y="-168" />
      <point x="70" y="-168" type="qcurve" />
      <point x="101" y="-168" />
      <point x="146" y="-145" />
      <point x="178" y="-102" />
      <point x="189" y="-73" type="qcurve" />
      <point x="217" y="-2" type="line" />
    </contour>
  </outline>
</glyph>
<glyph name="z" format="2">
  <unicode hex="007A" />
  <advance width="470" />
  <outline>
    <contour>
      <point x="431" y="0" type="line" />
      <point x="39" y="0" type="line" />
      <point x="39" y="58" type="line" />
      <point x="327" y="468" type="line" />
      <point x="56" y="468" type="line" />
      <point x="56" y="536" type="line" />
      <point x="424" y="536" type="line" />
      <point x="424" y="470" type="line" />
      <point x="140" y="68" type="line" />
      <point x="431" y="68" type="line" />
    </contour>
  </outline>
</glyph>
<glyph name="braceleft" format="2">
  <unicode hex="007B" />
  <advance width="380" />
  <outline>
    <contour>
      <point x="348" y="-158" type="line" />
      <point x="287" y="-157" />
      <point x="198" y="-123" />
      <point x="150" y="-52" />
      <point x="150" y="1" type="qcurve" />
      <point x="150" y="148" type="line" />
      <point x="150" y="182" />
      <point x="122" y="223" />
      <point x="68" y="242" />
      <point x="28" y="242" type="qcurve" />
      <point x="28" y="315" type="line" />
      <point x="68" y="316" />
      <point x="122" y="334" />
      <point x="150" y="375" />
      <point x="150" y="408" type="qcurve" />
      <point x="150" y="556" type="line" />
      <point x="150" y="609" />
      <point x="200" y="679" />
      <point x="290" y="714" />
      <point x="348" y="714" type="qcurve" />
      <point x="348" y="642" type="line" />
      <point x="314" y="641" />
      <point x="264" y="621" />
      <point x="237" y="581" />
      <point x="237" y="548" type="qcurve" />
      <point x="237" y="404" type="line" />
      <point x="237" y="353" />
      <point x="183" y="292" />
      <point x="128" y="282" type="qcurve" />
      <point x="128" y="276" type="line" />
      <point x="184" y="266" />
      <point x="237" y="205" />
      <point x="237" y="154" type="qcurve" />
      <point x="237" y="7" type="line" />
      <point x="237" y="-25" />
      <point x="263" y="-66" />
      <point x="313" y="-85" />
      <point x="348" y="-86" type="qcurve" />
    </contour>
  </outline>
</glyph>
<glyph name="bar" format="2">
  <unicode hex="007C" />
  <advance width="551" />
  <outline>
    <contour>
      <point x="239" y="760" type="line" />
      <point x="312" y="760" type="line" />
      <point x="312" y="-241" type="line" />
      <point x="239" y="-241" type="line" />
    </contour>
  </outline>
</glyph>
<glyph name="braceright" format="2">
  <unicode hex="007D" />
  <advance width="380" />
  <outline>
    <contour>
      <point x="32" y="-86" type="line" />
      <point x="67" y="-85" />
      <point x="116" y="-65" />
      <point x="143" y="-24" />
      <point x="143" y="8" type="qcurve" />
      <point x="143" y="153" type="line" />
      <point x="143" y="204" />
      <point x="197" y="265" />
      <point x="252" y="275" type="qcurve" />
      <point x="252" y="281" type="line" />
      <point x="197" y="291" />
      <point x="143" y="352" />
      <point x="143" y="403" type="qcurve" />
      <point x="143" y="549" type="line" />
      <point x="143" y="582" />
      <point x="117" y="622" />
      <point x="68" y="642" />
      <point x="32" y="642" type="qcurve" />
      <point x="32" y="714" type="line" />
      <point x="94" y="714" />
      <point x="182" y="679" />
      <point x="230" y="609" />
      <point x="230" y="555" type="qcurve" />
      <point x="230" y="409" type="line" />
      <point x="230" y="375" />
      <point x="258" y="334" />
      <point x="313" y="315" />
      <point x="352" y="315" type="qcurve" />
      <point x="352" y="242" type="line" />
      <point x="313" y="242" />
      <point x="258" y="223" />
      <point x="230" y="183" />
      <point x="230" y="149" type="qcurve" />
      <point x="230" y="0" type="line" />
      <point x="230" y="-53" />
      <point x="180" y="-123" />
      <point x="91" y="-158" />
      <point x="32" y="-158" type="qcurve" />
    </contour>
  </outline>
</glyph>
<glyph name="asciitilde" format="2">
  <unicode hex="007E" />
  <advance width="572" />
  <outline>
    <contour>
      <point x="269" y="319" type="qcurve" />
      <point x="233" y="335" />
      <point x="186" y="346" />
      <point x="164" y="346" type="qcurve" />
      <point x="136" y="346" />
      <point x="74" y="312" />
      <point x="50" y="287" type="qcurve" />
      <point x="50" y="365" type="line" />
      <point x="74" y="391" />
      <point x="134" y="418" />
      <point x="170" y="418" type="qcurve" />
      <point x="199" y="418" />
      <point x="256" y="406" />
      <point x="302" y="386" type="qcurve" />
      <point x="338" y="370" />
      <point x="385" y="359" />
      <point x="406" y="359" type="qcurve" />
      <point x="435" y="359" />
      <point x="497" y="393" />
      <point x="521" y="418" type="qcurve" />
      <point x="521" y="341" type="line" />
      <point x="497" y="315" />
      <point x="437" y="287" />
      <point x="401" y="287" type="qcurve" />
      <point x="373" y="287" />
      <point x="314" y="300" />
    </contour>
  </outline>
</glyph>
<glyph name="exclamdown" format="2">
  <unicode hex="00A1" />
  <advance width="269" />
  <outline>
    <contour>
      <point x="104" y="330" type="line" />
      <point x="162" y="330" type="line" />
      <point x="187" y="-182" type="line" />
      <point x="79" y="-182" type="line" />
    </contour>
    <contour>
      <point x="196" y="478" type="qcurve" />
      <point x="196" y="441" />
      <point x="160" y="411" />
      <point x="134" y="411" type="qcurve" />
      <point x="109" y="411" />
      <point x="72" y="441" />
      <point x="72" y="478" type="qcurve" />
      <point x="72" y="514" />
      <point x="109" y="546" />
      <point x="134" y="546" type="qcurve" />
      <point x="160" y="546" />
      <point x="196" y="514" />
    </contour>
  </outline>
</glyph>
<glyph name="cent" format="2">
  <unicode hex="00A2" />
  <advance width="572" />
  <outline>
    <contour>
      <point x="353" y="644" type="line" />
      <point x="391" y="643" />
      <point x="460" y="626" />
      <point x="485" y="615" type="qcurve" />
      <point x="459" y="542" type="line" />
      <point x="433" y="552" />
      <point x="367" y="568" />
      <point x="340" y="568" type="qcurve" />
      <point x="286" y="568" />
      <point x="215" y="523" />
      <point x="181" y="432" />
      <point x="181" y="363" type="qcurve" />
      <point x="181" y="294" />
      <point x="216" y="206" />
      <point x="285" y="164" />
      <point x="336" y="164" type="qcurve" />
      <point x="380" y="164" />
      <point x="445" y="181" />
      <point x="476" y="194" type="qcurve" />
      <point x="476" y="117" type="line" />
      <point x="449" y="104" />
      <point x="391" y="89" />
      <point x="352" y="87" type="qcurve" />
      <point x="352" y="-10" type="line" />
      <point x="285" y="-10" type="line" />
      <point x="285" y="90" type="line" />
      <point x="226" y="99" />
      <point x="139" y="159" />
      <point x="91" y="273" />
      <point x="91" y="362" type="qcurve" />
      <point x="91" y="453" />
      <point x="139" y="569" />
      <point x="227" y="631" />
      <point x="285" y="640" type="qcurve" />
      <point x="285" y="724" type="line" />
      <point x="353" y="724" type="line" />
    </contour>
  </outline>
</glyph>
<glyph name="sterling" format="2">
  <unicode hex="00A3" />
  <advance width="572" />
  <outline>
    <contour>
      <point x="334" y="723" type="qcurve" />
      <point x="389" y="723" />
      <point x="477" y="699" />
      <point x="511" y="682" type="qcurve" />
      <point x="480" y="612" type="line" />
      <point x="450" y="626" />
      <point x="377" y="650" />
      <point x="336" y="650" type="qcurve" />
      <point x="279" y="650" />
      <point x="219" y="591" />
      <point x="219" y="525" type="qcurve" />
      <point x="219" y="386" type="line" />
      <point x="423" y="386" type="line" />
      <point x="423" y="320" type="line" />
      <point x="219" y="320" type="line" />
      <point x="219" y="216" type="line" />
      <point x="219" y="176" />
      <point x="200" y="123" />
      <point x="169" y="91" />
      <point x="151" y="80" type="qcurve" />
      <point x="535" y="80" type="line" />
      <point x="535" y="0" type="line" />
      <point x="32" y="0" type="line" />
      <point x="32" y="74" type="line" />
      <point x="61" y="81" />
      <point x="105" y="114" />
      <point x="131" y="171" />
      <point x="131" y="215" type="qcurve" />
      <point x="131" y="320" type="line" />
      <point x="35" y="320" type="line" />
      <point x="35" y="386" type="line" />
      <point x="131" y="386" type="line" />
      <point x="131" y="534" type="line" />
      <point x="131" y="594" />
      <point x="181" y="678" />
      <point x="273" y="723" />
    </contour>
  </outline>
</glyph>
<glyph name="currency" format="2">
  <unicode hex="00A4" />
  <advance width="572" />
  <outline>
    <contour>
      <point x="90" y="353" type="qcurve" />
      <point x="90" y="383" />
      <point x="109" y="440" />
      <point x="125" y="463" type="qcurve" />
      <point x="59" y="531" type="line" />
      <point x="108" y="578" type="line" />
      <point x="174" y="514" type="line" />
      <point x="197" y="531" />
      <point x="255" y="549" />
      <point x="286" y="549" type="qcurve" />
      <point x="317" y="549" />
      <point x="372" y="531" />
      <point x="396" y="514" type="qcurve" />
      <point x="463" y="578" type="line" />
      <point x="511" y="531" type="line" />
      <point x="447" y="464" type="line" />
      <point x="462" y="441" />
      <point x="482" y="384" />
      <point x="482" y="353" type="qcurve" />
      <point x="482" y="322" />
      <point x="464" y="264" />
      <point x="447" y="241" type="qcurve" />
      <point x="510" y="175" type="line" />
      <point x="463" y="128" type="line" />
      <point x="396" y="192" type="line" />
      <point x="373" y="176" />
      <point x="317" y="158" />
      <point x="286" y="158" type="qcurve" />
      <point x="255" y="158" />
      <point x="197" y="177" />
      <point x="174" y="193" type="qcurve" />
      <point x="108" y="129" type="line" />
      <point x="60" y="176" type="line" />
      <point x="125" y="242" type="line" />
      <point x="109" y="265" />
      <point x="90" y="322" />
    </contour>
    <contour>
      <point x="157" y="353" type="qcurve" />
      <point x="157" y="317" />
      <point x="191" y="259" />
      <point x="250" y="224" />
      <point x="286" y="224" type="qcurve" />
      <point x="323" y="224" />
      <point x="381" y="259" />
      <point x="416" y="317" />
      <point x="416" y="353" type="qcurve" />
      <point x="416" y="390" />
      <point x="381" y="449" />
      <point x="323" y="484" />
      <point x="286" y="484" type="qcurve" />
      <point x="250" y="484" />
      <point x="191" y="449" />
      <point x="157" y="390" />
    </contour>
  </outline>
</glyph>
<glyph name="brokenbar" format="2">
  <unicode hex="00A6" />
  <advance width="551" />
  <outline>
    <contour>
      <point x="239" y="760" type="line" />
      <point x="312" y="760" type="line" />
      <point x="312" y="379" type="line" />
      <point x="239" y="379" type="line" />
    </contour>
    <contour>
      <point x="239" y="140" type="line" />
      <point x="312" y="140" type="line" />
      <point x="312" y="-241" type="line" />
      <point x="239" y="-241" type="line" />
    </contour>
  </outline>
</glyph>
<glyph name="section" format="2">
  <unicode hex="00A7" />
  <advance width="513" />
  <outline>
    <contour>
      <point x="67" y="395" type="qcurve" />
      <point x="67" y="445" />
      <point x="115" y="506" />
      <point x="146" y="521" type="qcurve" />
      <point x="110" y="541" />
      <point x="70" y="596" />
      <point x="70" y="636" type="qcurve" />
      <point x="70" y="696" />
      <point x="172" y="765" />
      <point x="267" y="765" type="qcurve" />
      <point x="323" y="765" />
      <point x="401" y="746" />
      <point x="438" y="731" type="qcurve" />
      <point x="411" y="664" type="line" />
      <point x="377" y="678" />
      <point x="309" y="697" />
      <point x="261" y="697" type="qcurve" />
      <point x="201" y="697" />
      <point x="152" y="666" />
      <point x="152" y="638" type="qcurve" />
      <point x="152" y="620" />
      <point x="176" y="591" />
      <point x="233" y="562" />
      <point x="284" y="543" type="qcurve" />
      <point x="336" y="524" />
      <point x="408" y="480" />
      <point x="447" y="423" />
      <point x="447" y="383" type="qcurve" />
      <point x="447" y="332" />
      <point x="401" y="267" />
      <point x="372" y="250" type="qcurve" />
      <point x="407" y="231" />
      <point x="446" y="178" />
      <point x="446" y="140" type="qcurve" />
      <point x="446" y="71" />
      <point x="331" y="-5" />
      <point x="228" y="-5" type="qcurve" />
      <point x="173" y="-5" />
      <point x="91" y="12" />
      <point x="59" y="28" type="qcurve" />
      <point x="59" y="103" type="line" />
      <point x="81" y="93" />
      <point x="137" y="74" />
      <point x="201" y="62" />
      <point x="232" y="62" type="qcurve" />
      <point x="306" y="62" />
      <point x="362" y="105" />
      <point x="362" y="133" type="qcurve" />
      <point x="362" y="152" />
      <point x="343" y="180" />
      <point x="288" y="211" />
      <point x="233" y="231" type="qcurve" />
      <point x="181" y="251" />
      <point x="106" y="293" />
      <point x="67" y="351" />
    </contour>
    <contour>
      <point x="142" y="405" type="qcurve" />
      <point x="142" y="381" />
      <point x="169" y="342" />
      <point x="232" y="307" />
      <point x="285" y="287" type="qcurve" />
      <point x="307" y="279" type="line" />
      <point x="330" y="293" />
      <point x="371" y="336" />
      <point x="371" y="370" type="qcurve" />
      <point x="371" y="395" />
      <point x="344" y="435" />
      <point x="276" y="472" />
      <point x="214" y="491" type="qcurve" />
      <point x="186" y="484" />
      <point x="142" y="438" />
    </contour>
  </outline>
</glyph>
<glyph name="dieresis" format="2">
  <unicode hex="00A8" />
  <advance width="580" />
  <outline>
    <contour>
      <point x="149" y="681" type="qcurve" />
      <point x="149" y="707" />
      <point x="177" y="730" />
      <point x="196" y="730" type="qcurve" />
      <point x="215" y="730" />
      <point x="243" y="707" />
      <point x="243" y="681" type="qcurve" />
      <point x="243" y="656" />
      <point x="215" y="631" />
      <point x="196" y="631" type="qcurve" />
      <point x="177" y="631" />
      <point x="149" y="656" />
    </contour>
    <contour>
      <point x="337" y="681" type="qcurve" />
      <point x="337" y="707" />
      <point x="364" y="730" />
      <point x="383" y="730" type="qcurve" />
      <point x="402" y="730" />
      <point x="430" y="707" />
      <point x="430" y="681" type="qcurve" />
      <point x="430" y="656" />
      <point x="402" y="631" />
      <point x="383" y="631" type="qcurve" />
      <point x="364" y="631" />
      <point x="337" y="656" />
    </contour>
  </outline>
</glyph>
<glyph name="copyright" format="2">
  <unicode hex="00A9" />
  <advance width="832" />
  <outline>
    <contour>
      <point x="431" y="133" type="qcurve" />
      <point x="332" y="133" />
      <point x="234" y="256" />
      <point x="234" y="357" type="qcurve" />
      <point x="234" y="422" />
      <point x="280" y="523" />
      <point x="370" y="580" />
      <point x="435" y="580" type="qcurve" />
      <point x="466" y="580" />
      <point x="530" y="564" />
      <point x="558" y="550" type="qcurve" />
      <point x="529" y="489" type="line" />
      <point x="504" y="502" />
      <point x="457" y="515" />
      <point x="436" y="515" type="qcurve" />
      <point x="377" y="515" />
      <point x="312" y="431" />
      <point x="312" y="357" type="qcurve" />
      <point x="312" y="281" />
      <point x="369" y="198" />
      <point x="435" y="198" type="qcurve" />
      <point x="458" y="198" />
      <point x="515" y="211" />
      <point x="540" y="221" type="qcurve" />
      <point x="540" y="157" type="line" />
      <point x="516" y="147" />
      <point x="466" y="133" />
    </contour>
    <contour>
      <point x="416" y="-10" type="qcurve" />
      <point x="336" y="-10" />
      <point x="202" y="44" />
      <point x="103" y="143" />
      <point x="49" y="277" />
      <point x="49" y="357" type="qcurve" />
      <point x="49" y="437" />
      <point x="103" y="571" />
      <point x="202" y="670" />
      <point x="336" y="724" />
      <point x="416" y="724" type="qcurve" />
      <point x="492" y="724" />
      <point x="625" y="670" />
      <point x="726" y="571" />
      <point x="783" y="437" />
      <point x="783" y="357" type="qcurve" />
      <point x="783" y="277" />
      <point x="729" y="143" />
      <point x="630" y="44" />
      <point x="496" y="-10" />
    </contour>
    <contour>
      <point x="416" y="43" type="qcurve" />
      <point x="480" y="43" />
      <point x="592" y="89" />
      <point x="678" y="174" />
      <point x="726" y="288" />
      <point x="726" y="357" type="qcurve" />
      <point x="726" y="422" />
      <point x="680" y="536" />
      <point x="597" y="622" />
      <point x="484" y="671" />
      <point x="416" y="671" type="qcurve" />
      <point x="348" y="671" />
      <point x="234" y="625" />
      <point x="151" y="540" />
      <point x="105" y="426" />
      <point x="105" y="357" type="qcurve" />
      <point x="105" y="292" />
      <point x="151" y="178" />
      <point x="234" y="92" />
      <point x="348" y="43" />
    </contour>
  </outline>
</glyph>
<glyph name="ordfeminine" format="2">
  <unicode hex="00AA" />
  <advance width="357" />
  <outline>
    <contour>
      <point x="177" y="722" type="qcurve" />
      <point x="242" y="722" />
      <point x="308" y="668" />
      <point x="308" y="609" type="qcurve" />
      <point x="308" y="389" type="line" />
      <point x="261" y="389" type="line" />
      <point x="249" y="431" type="line" />
      <point x="229" y="410" />
      <point x="173" y="383" />
      <point x="135" y="383" type="qcurve" />
      <point x="104" y="383" />
      <point x="57" y="405" />
      <point x="32" y="449" />
      <point x="32" y="482" type="qcurve" />
      <point x="32" y="516" />
      <point x="66" y="561" />
      <point x="137" y="585" />
      <point x="190" y="587" type="qcurve" />
      <point x="246" y="589" type="line" />
      <point x="246" y="611" type="line" />
      <point x="246" y="644" />
      <point x="204" y="670" />
      <point x="175" y="670" type="qcurve" />
      <point x="147" y="670" />
      <point x="97" y="655" />
      <point x="74" y="644" type="qcurve" />
      <point x="52" y="693" type="line" />
      <point x="78" y="706" />
      <point x="143" y="722" />
    </contour>
    <contour>
      <point x="198" y="542" type="line" />
      <point x="138" y="540" />
      <point x="96" y="509" />
      <point x="96" y="482" type="qcurve" />
      <point x="96" y="457" />
      <point x="125" y="434" />
      <point x="150" y="434" type="qcurve" />
      <point x="201" y="434" />
      <point x="246" y="481" />
      <point x="246" y="521" type="qcurve" />
      <point x="246" y="544" type="line" />
    </contour>
  </outline>
</glyph>
<glyph name="logicalnot" format="2">
  <unicode hex="00AC" />
  <advance width="572" />
  <outline>
    <contour>
      <point x="520" y="388" type="line" />
      <point x="520" y="128" type="line" />
      <point x="449" y="128" type="line" />
      <point x="449" y="317" type="line" />
      <point x="50" y="317" type="line" />
      <point x="50" y="388" type="line" />
    </contour>
  </outline>
</glyph>
<glyph name="registered" format="2">
  <unicode hex="00AE" />
  <advance width="832" />
  <outline>
    <contour>
      <point x="279" y="138" type="line" />
      <point x="279" y="575" type="line" />
      <point x="407" y="575" type="line" />
      <point x="489" y="575" />
      <point x="565" y="511" />
      <point x="565" y="446" type="qcurve" />
      <point x="565" y="399" />
      <point x="517" y="344" />
      <point x="487" y="332" type="qcurve" />
      <point x="603" y="138" type="line" />
      <point x="517" y="138" type="line" />
      <point x="417" y="311" type="line" />
      <point x="355" y="311" type="line" />
      <point x="355" y="138" type="line" />
    </contour>
    <contour>
      <point x="405" y="373" type="line" />
      <point x="444" y="373" />
      <point x="488" y="413" />
      <point x="488" y="444" type="qcurve" />
      <point x="488" y="479" />
      <point x="448" y="511" />
      <point x="404" y="511" type="qcurve" />
      <point x="355" y="511" type="line" />
      <point x="355" y="373" type="line" />
    </contour>
    <contour>
      <point x="416" y="-10" type="qcurve" />
      <point x="336" y="-10" />
      <point x="202" y="44" />
      <point x="103" y="143" />
      <point x="49" y="277" />
      <point x="49" y="357" type="qcurve" />
      <point x="49" y="437" />
      <point x="103" y="571" />
      <point x="202" y="670" />
      <point x="336" y="724" />
      <point x="416" y="724" type="qcurve" />
      <point x="492" y="724" />
      <point x="625" y="670" />
      <point x="726" y="571" />
      <point x="783" y="437" />
      <point x="783" y="357" type="qcurve" />
      <point x="783" y="277" />
      <point x="729" y="143" />
      <point x="630" y="44" />
      <point x="496" y="-10" />
    </contour>
    <contour>
      <point x="416" y="43" type="qcurve" />
      <point x="480" y="43" />
      <point x="592" y="89" />
      <point x="678" y="174" />
      <point x="726" y="288" />
      <point x="726" y="357" type="qcurve" />
      <point x="726" y="422" />
      <point x="680" y="536" />
      <point x="597" y="622" />
      <point x="484" y="671" />
      <point x="416" y="671" type="qcurve" />
      <point x="348" y="671" />
      <point x="234" y="625" />
      <point x="151" y="540" />
      <point x="105" y="426" />
      <point x="105" y="357" type="qcurve" />
      <point x="105" y="292" />
      <point x="151" y="178" />
      <point x="234" y="92" />
      <point x="348" y="43" />
    </contour>
  </outline>
</glyph>
<glyph name="degree" format="2">
  <unicode hex="00B0" />
  <advance width="428" />
  <outline>
    <contour>
      <point x="214" y="417" type="qcurve" />
      <point x="166" y="417" />
      <point x="95" y="456" />
      <point x="55" y="525" />
      <point x="55" y="570" type="qcurve" />
      <point x="55" y="616" />
      <point x="94" y="685" />
      <point x="165" y="724" />
      <point x="214" y="724" type="qcurve" />
      <point x="261" y="724" />
      <point x="333" y="685" />
      <point x="373" y="616" />
      <point x="373" y="570" type="qcurve" />
      <point x="373" y="525" />
      <point x="333" y="456" />
      <point x="261" y="417" />
    </contour>
    <contour>
      <point x="215" y="476" type="qcurve" />
      <point x="263" y="476" />
      <point x="308" y="528" />
      <point x="308" y="570" type="qcurve" />
      <point x="308" y="614" />
      <point x="261" y="666" />
      <point x="215" y="666" type="qcurve" />
      <point x="166" y="666" />
      <point x="120" y="614" />
      <point x="120" y="570" type="qcurve" />
      <point x="120" y="528" />
      <point x="166" y="476" />
    </contour>
  </outline>
</glyph>
<glyph name="plusminus" format="2">
  <unicode hex="00B1" />
  <advance width="572" />
  <outline>
    <contour>
      <point x="50" y="0" type="line" />
      <point x="50" y="71" type="line" />
      <point x="521" y="71" type="line" />
      <point x="521" y="0" type="line" />
    </contour>
    <contour>
      <point x="321" y="391" type="line" />
      <point x="520" y="391" type="line" />
      <point x="520" y="320" type="line" />
      <point x="321" y="320" type="line" />
      <point x="321" y="114" type="line" />
      <point x="249" y="114" type="line" />
      <point x="249" y="320" type="line" />
      <point x="50" y="320" type="line" />
      <point x="50" y="391" type="line" />
      <point x="249" y="391" type="line" />
      <point x="249" y="598" type="line" />
      <point x="321" y="598" type="line" />
    </contour>
  </outline>
</glyph>
<glyph name="uni00B2" format="2">
  <unicode hex="00B2" />
  <advance width="350" />
  <outline>
    <contour>
      <point x="306" y="416" type="line" />
      <point x="24" y="416" type="line" />
      <point x="24" y="470" type="line" />
      <point x="139" y="582" type="line" />
      <point x="180" y="621" />
      <point x="221" y="670" />
      <point x="236" y="709" />
      <point x="236" y="731" type="qcurve" />
      <point x="236" y="763" />
      <point x="199" y="795" />
      <point x="169" y="795" type="qcurve" />
      <point x="139" y="795" />
      <point x="90" y="772" />
      <point x="64" y="752" type="qcurve" />
      <point x="29" y="798" type="line" />
      <point x="58" y="823" />
      <point x="127" y="853" />
      <point x="170" y="853" type="qcurve" />
      <point x="234" y="853" />
      <point x="307" y="790" />
      <point x="307" y="735" type="qcurve" />
      <point x="307" y="702" />
      <point x="280" y="647" />
      <point x="229" y="590" />
      <point x="192" y="555" type="qcurve" />
      <point x="111" y="478" type="line" />
      <point x="306" y="478" type="line" />
    </contour>
  </outline>
</glyph>
<glyph name="uni00B3" format="2">
  <unicode hex="00B3" />
  <advance width="350" />
  <outline>
    <contour>
      <point x="165" y="853" type="qcurve" />
      <point x="236" y="853" />
      <point x="308" y="791" />
      <point x="308" y="743" type="qcurve" />
      <point x="308" y="703" />
      <point x="265" y="651" />
      <point x="235" y="641" type="qcurve" />
      <point x="235" y="638" type="line" />
      <point x="274" y="631" />
      <point x="321" y="580" />
      <point x="321" y="539" type="qcurve" />
      <point x="321" y="481" />
      <point x="237" y="408" />
      <point x="148" y="408" type="qcurve" />
      <point x="111" y="408" />
      <point x="47" y="421" />
      <point x="17" y="436" type="qcurve" />
      <point x="17" y="499" type="line" />
      <point x="51" y="483" />
      <point x="119" y="465" />
      <point x="149" y="465" type="qcurve" />
      <point x="201" y="465" />
      <point x="249" y="506" />
      <point x="249" y="541" type="qcurve" />
      <point x="249" y="577" />
      <point x="191" y="610" />
      <point x="139" y="610" type="qcurve" />
      <point x="82" y="610" type="line" />
      <point x="82" y="665" type="line" />
      <point x="139" y="665" type="line" />
      <point x="189" y="665" />
      <point x="236" y="704" />
      <point x="236" y="735" type="qcurve" />
      <point x="236" y="767" />
      <point x="195" y="796" />
      <point x="166" y="796" type="qcurve" />
      <point x="135" y="796" />
      <point x="82" y="775" />
      <point x="55" y="758" type="qcurve" />
      <point x="19" y="804" type="line" />
      <point x="50" y="827" />
      <point x="119" y="853" />
    </contour>
  </outline>
</glyph>
<glyph name="acute" format="2">
  <unicode hex="00B4" />
  <advance width="281" />
  <outline>
    <contour>
      <point x="241" y="756" type="line" />
      <point x="232" y="742" />
      <point x="198" y="702" />
      <point x="157" y="659" />
      <point x="116" y="620" />
      <point x="98" y="606" type="qcurve" />
      <point x="40" y="606" type="line" />
      <point x="40" y="618" type="line" />
      <point x="55" y="637" />
      <point x="90" y="689" />
      <point x="124" y="744" />
      <point x="135" y="766" type="qcurve" />
      <point x="241" y="766" type="line" />
    </contour>
  </outline>
</glyph>
<glyph name="uni00B5" format="2">
  <unicode hex="00B5" />
  <advance width="623" />
  <outline>
    <contour>
      <point x="538" y="536" type="line" />
      <point x="538" y="0" type="line" />
      <point x="467" y="0" type="line" />
      <point x="453" y="72" type="line" />
      <point x="448" y="72" type="line" />
      <point x="431" y="46" />
      <point x="385" y="9" />
      <point x="325" y="-10" />
      <point x="287" y="-10" type="qcurve" />
      <point x="248" y="-10" />
      <point x="192" y="15" />
      <point x="172" y="35" type="qcurve" />
      <point x="168" y="35" type="line" />
      <point x="170" y="17" />
      <point x="173" y="-43" />
      <point x="173" y="-84" type="qcurve" />
      <point x="173" y="-240" type="line" />
      <point x="85" y="-240" type="line" />
      <point x="85" y="536" type="line" />
      <point x="173" y="536" type="line" />
      <point x="173" y="190" type="line" />
      <point x="173" y="128" />
      <point x="233" y="63" />
      <point x="293" y="63" type="qcurve" />
      <point x="353" y="63" />
      <point x="421" y="108" />
      <point x="450" y="195" />
      <point x="450" y="257" type="qcurve" />
      <point x="450" y="536" type="line" />
    </contour>
  </outline>
</glyph>
<glyph name="paragraph" format="2">
  <unicode hex="00B6" />
  <advance width="655" />
  <outline>
    <contour>
      <point x="549" y="-127" type="line" />
      <point x="491" y="-127" type="line" />
      <point x="491" y="704" type="line" />
      <point x="389" y="704" type="line" />
      <point x="389" y="-127" type="line" />
      <point x="331" y="-127" type="line" />
      <point x="331" y="273" type="line" />
      <point x="316" y="269" />
      <point x="277" y="264" />
      <point x="260" y="264" type="qcurve" />
      <point x="198" y="264" />
      <point x="106" y="310" />
      <point x="55" y="418" />
      <point x="55" y="509" type="qcurve" />
      <point x="55" y="605" />
      <point x="110" y="714" />
      <point x="210" y="760" />
      <point x="275" y="760" type="qcurve" />
      <point x="549" y="760" type="line" />
    </contour>
  </outline>
</glyph>
<glyph name="cedilla" format="2">
  <unicode hex="00B8" />
  <advance width="225" />
  <outline>
    <contour>
      <point x="212" y="-139" type="qcurve" />
      <point x="212" y="-187" />
      <point x="138" y="-240" />
      <point x="64" y="-240" type="qcurve" />
      <point x="49" y="-240" />
      <point x="22" y="-237" />
      <point x="14" y="-235" type="qcurve" />
      <point x="14" y="-180" type="line" />
      <point x="23" y="-182" />
      <point x="53" y="-185" />
      <point x="67" y="-185" type="qcurve" />
      <point x="103" y="-185" />
      <point x="141" y="-166" />
      <point x="141" y="-141" type="qcurve" />
      <point x="141" y="-115" />
      <point x="88" y="-91" />
      <point x="50" y="-86" type="qcurve" />
      <point x="93" y="0" type="line" />
      <point x="151" y="0" type="line" />
      <point x="125" y="-53" type="line" />
      <point x="149" y="-58" />
      <point x="189" y="-79" />
      <point x="212" y="-113" />
    </contour>
  </outline>
</glyph>
<glyph name="uni00B9" format="2">
  <unicode hex="00B9" />
  <advance width="350" />
  <outline>
    <contour>
      <point x="240" y="844" type="line" />
      <point x="240" y="416" type="line" />
      <point x="169" y="416" type="line" />
      <point x="169" y="692" type="line" />
      <point x="169" y="709" />
      <point x="170" y="739" />
      <point x="172" y="767" />
      <point x="173" y="781" type="qcurve" />
      <point x="163" y="772" />
      <point x="139" y="751" />
      <point x="126" y="742" type="qcurve" />
      <point x="72" y="703" type="line" />
      <point x="37" y="752" type="line" />
      <point x="167" y="844" type="line" />
    </contour>
  </outline>
</glyph>
<glyph name="ordmasculine" format="2">
  <unicode hex="00BA" />
  <advance width="376" />
  <outline>
    <contour>
      <point x="345" y="553" type="qcurve" />
      <point x="345" y="472" />
      <point x="259" y="383" />
      <point x="187" y="383" type="qcurve" />
      <point x="120" y="383" />
      <point x="32" y="470" />
      <point x="32" y="553" type="qcurve" />
      <point x="32" y="635" />
      <point x="116" y="722" />
      <point x="189" y="722" type="qcurve" />
      <point x="236" y="722" />
      <point x="306" y="683" />
      <point x="345" y="608" />
    </contour>
    <contour>
      <point x="95" y="553" type="qcurve" />
      <point x="95" y="495" />
      <point x="139" y="436" />
      <point x="188" y="436" type="qcurve" />
      <point x="237" y="436" />
      <point x="281" y="495" />
      <point x="281" y="553" type="qcurve" />
      <point x="281" y="612" />
      <point x="237" y="669" />
      <point x="188" y="669" type="qcurve" />
      <point x="139" y="669" />
      <point x="95" y="612" />
    </contour>
  </outline>
</glyph>
<glyph name="onequarter" format="2">
  <unicode hex="00BC" />
  <advance width="745" />
  <outline>
    <contour>
      <point x="126" y="0" type="line" />
      <point x="562" y="714" type="line" />
      <point x="637" y="714" type="line" />
      <point x="201" y="0" type="line" />
    </contour>
    <contour>
      <point x="166" y="562" type="line" />
      <point x="166" y="579" />
      <point x="167" y="609" />
      <point x="169" y="637" />
      <point x="170" y="651" type="qcurve" />
      <point x="160" y="642" />
      <point x="136" y="621" />
      <point x="123" y="612" type="qcurve" />
      <point x="69" y="573" type="line" />
      <point x="34" y="622" type="line" />
      <point x="164" y="714" type="line" />
      <point x="237" y="714" type="line" />
      <point x="237" y="286" type="line" />
      <point x="166" y="286" type="line" />
    </contour>
    <contour>
      <point x="600" y="0" type="line" />
      <point x="600" y="96" type="line" />
      <point x="405" y="96" type="line" />
      <point x="405" y="148" type="line" />
      <point x="602" y="431" type="line" />
      <point x="675" y="431" type="line" />
      <point x="675" y="156" type="line" />
      <point x="736" y="156" type="line" />
      <point x="736" y="96" type="line" />
      <point x="675" y="96" type="line" />
      <point x="675" y="0" type="line" />
    </contour>
    <contour>
      <point x="475" y="156" type="line" />
      <point x="600" y="156" type="line" />
      <point x="600" y="249" type="line" />
      <point x="600" y="270" />
      <point x="602" y="326" />
      <point x="603" y="350" type="qcurve" />
      <point x="598" y="339" />
      <point x="566" y="290" />
      <point x="555" y="273" type="qcurve" />
    </contour>
  </outline>
</glyph>
<glyph name="onehalf" format="2">
  <unicode hex="00BD" />
  <advance width="771" />
  <outline>
    <contour>
      <point x="96" y="0" type="line" />
      <point x="532" y="714" type="line" />
      <point x="607" y="714" type="line" />
      <point x="171" y="0" type="line" />
    </contour>
    <contour>
      <point x="154" y="562" type="line" />
      <point x="154" y="575" />
      <point x="155" y="598" />
      <point x="156" y="620" />
      <point x="157" y="641" />
      <point x="158" y="651" type="qcurve" />
      <point x="148" y="642" />
      <point x="124" y="621" />
      <point x="111" y="612" type="qcurve" />
      <point x="57" y="573" type="line" />
      <point x="22" y="622" type="line" />
      <point x="152" y="714" type="line" />
      <point x="225" y="714" type="line" />
      <point x="225" y="286" type="line" />
      <point x="154" y="286" type="line" />
    </contour>
    <contour>
      <point x="445" y="0" type="line" />
      <point x="445" y="54" type="line" />
      <point x="560" y="166" type="line" />
      <point x="601" y="205" />
      <point x="642" y="254" />
      <point x="657" y="293" />
      <point x="657" y="315" type="qcurve" />
      <point x="657" y="347" />
      <point x="620" y="379" />
      <point x="590" y="379" type="qcurve" />
      <point x="560" y="379" />
      <point x="511" y="356" />
      <point x="485" y="336" type="qcurve" />
      <point x="450" y="382" type="line" />
      <point x="479" y="407" />
      <point x="548" y="437" />
      <point x="591" y="437" type="qcurve" />
      <point x="655" y="437" />
      <point x="728" y="374" />
      <point x="728" y="319" type="qcurve" />
      <point x="728" y="286" />
      <point x="701" y="231" />
      <point x="650" y="174" />
      <point x="613" y="139" type="qcurve" />
      <point x="532" y="62" type="line" />
      <point x="727" y="62" type="line" />
      <point x="727" y="0" type="line" />
    </contour>
  </outline>
</glyph>
<glyph name="threequarters" format="2">
  <unicode hex="00BE" />
  <advance width="781" />
  <outline>
    <contour>
      <point x="170" y="0" type="line" />
      <point x="606" y="714" type="line" />
      <point x="681" y="714" type="line" />
      <point x="245" y="0" type="line" />
    </contour>
    <contour>
      <point x="146" y="278" type="qcurve" />
      <point x="109" y="278" />
      <point x="45" y="291" />
      <point x="15" y="306" type="qcurve" />
      <point x="15" y="369" type="line" />
      <point x="49" y="353" />
      <point x="117" y="335" />
      <point x="147" y="335" type="qcurve" />
      <point x="199" y="335" />
      <point x="247" y="376" />
      <point x="247" y="411" type="qcurve" />
      <point x="247" y="447" />
      <point x="189" y="480" />
      <point x="137" y="480" type="qcurve" />
      <point x="80" y="480" type="line" />
      <point x="80" y="535" type="line" />
      <point x="137" y="535" type="line" />
      <point x="187" y="535" />
      <point x="234" y="574" />
      <point x="234" y="605" type="qcurve" />
      <point x="234" y="637" />
      <point x="193" y="666" />
      <point x="164" y="666" type="qcurve" />
      <point x="133" y="666" />
      <point x="80" y="645" />
      <point x="53" y="628" type="qcurve" />
      <point x="17" y="674" type="line" />
      <point x="48" y="697" />
      <point x="117" y="723" />
      <point x="163" y="723" type="qcurve" />
      <point x="234" y="723" />
      <point x="306" y="661" />
      <point x="306" y="613" type="qcurve" />
      <point x="306" y="573" />
      <point x="263" y="521" />
      <point x="233" y="511" type="qcurve" />
      <point x="233" y="508" type="line" />
      <point x="272" y="501" />
      <point x="319" y="450" />
      <point x="319" y="409" type="qcurve" />
      <point x="319" y="351" />
      <point x="235" y="278" />
    </contour>
    <contour>
      <point x="636" y="0" type="line" />
      <point x="636" y="96" type="line" />
      <point x="441" y="96" type="line" />
      <point x="441" y="148" type="line" />
      <point x="638" y="431" type="line" />
      <point x="711" y="431" type="line" />
      <point x="711" y="156" type="line" />
      <point x="772" y="156" type="line" />
      <point x="772" y="96" type="line" />
      <point x="711" y="96" type="line" />
      <point x="711" y="0" type="line" />
    </contour>
    <contour>
      <point x="511" y="156" type="line" />
      <point x="636" y="156" type="line" />
      <point x="636" y="249" type="line" />
      <point x="636" y="270" />
      <point x="638" y="326" />
      <point x="639" y="350" type="qcurve" />
      <point x="634" y="339" />
      <point x="602" y="290" />
      <point x="591" y="273" type="qcurve" />
    </contour>
  </outline>
</glyph>
<glyph name="questiondown" format="2">
  <unicode hex="00BF" />
  <advance width="434" />
  <outline>
    <contour>
      <point x="292" y="304" type="line" />
      <point x="292" y="267" />
      <point x="277" y="211" />
      <point x="241" y="162" />
      <point x="208" y="134" type="qcurve" />
      <point x="170" y="102" />
      <point x="126" y="57" />
      <point x="108" y="15" />
      <point x="108" y="-15" type="qcurve" />
      <point x="108" y="-63" />
      <point x="171" y="-115" />
      <point x="229" y="-115" type="qcurve" />
      <point x="279" y="-115" />
      <point x="355" y="-89" />
      <point x="389" y="-73" type="qcurve" />
      <point x="420" y="-143" type="line" />
      <point x="380" y="-164" />
      <point x="283" y="-192" />
      <point x="223" y="-192" type="qcurve" />
      <point x="128" y="-192" />
      <point x="24" y="-98" />
      <point x="24" y="-17" type="qcurve" />
      <point x="24" y="28" />
      <point x="53" y="91" />
      <point x="106" y="144" />
      <point x="142" y="174" type="qcurve" />
      <point x="176" y="203" />
      <point x="210" y="244" />
      <point x="222" y="286" />
      <point x="222" y="314" type="qcurve" />
      <point x="222" y="331" type="line" />
      <point x="292" y="331" type="line" />
    </contour>
    <contour>
      <point x="315" y="478" type="qcurve" />
      <point x="315" y="441" />
      <point x="280" y="411" />
      <point x="253" y="411" type="qcurve" />
      <point x="228" y="411" />
      <point x="192" y="441" />
      <point x="192" y="478" type="qcurve" />
      <point x="192" y="514" />
      <point x="228" y="546" />
      <point x="253" y="546" type="qcurve" />
      <point x="280" y="546" />
      <point x="315" y="514" />
    </contour>
  </outline>
</glyph>
<glyph name="Eth" format="2">
  <unicode hex="00D0" />
  <advance width="730" />
  <outline>
    <contour>
      <point x="317" y="714" type="line" />
      <point x="424" y="714" />
      <point x="582" y="634" />
      <point x="669" y="479" />
      <point x="669" y="364" type="qcurve" />
      <point x="669" y="244" />
      <point x="580" y="82" />
      <point x="413" y="0" />
      <point x="295" y="0" type="qcurve" />
      <point x="104" y="0" type="line" />
      <point x="104" y="314" type="line" />
      <point x="30" y="314" type="line" />
      <point x="30" y="392" type="line" />
      <point x="104" y="392" type="line" />
      <point x="104" y="714" type="line" />
    </contour>
    <contour>
      <point x="304" y="637" type="qcurve" />
      <point x="194" y="637" type="line" />
      <point x="194" y="392" type="line" />
      <point x="372" y="392" type="line" />
      <point x="372" y="314" type="line" />
      <point x="194" y="314" type="line" />
      <point x="194" y="77" type="line" />
      <point x="284" y="77" type="line" />
      <point x="430" y="77" />
      <point x="574" y="220" />
      <point x="574" y="361" type="qcurve" />
      <point x="574" y="456" />
      <point x="510" y="578" />
      <point x="390" y="637" />
    </contour>
  </outline>
</glyph>
<glyph name="Oslash" format="2">
  <unicode hex="00D8" />
  <advance width="781" />
  <outline>
    <contour>
      <point x="720" y="358" type="qcurve" />
      <point x="720" y="275" />
      <point x="678" y="140" />
      <point x="595" y="42" />
      <point x="472" y="-10" />
      <point x="391" y="-10" type="qcurve" />
      <point x="335" y="-10" />
      <point x="242" y="14" />
      <point x="206" y="37" type="qcurve" />
      <point x="158" y="-31" type="line" />
      <point x="97" y="9" type="line" />
      <point x="149" y="83" type="line" />
      <point x="105" y="132" />
      <point x="61" y="272" />
      <point x="61" y="359" type="qcurve" />
      <point x="61" y="469" />
      <point x="133" y="633" />
      <point x="280" y="725" />
      <point x="392" y="725" type="qcurve" />
      <point x="444" y="725" />
      <point x="533" y="701" />
      <point x="570" y="680" type="qcurve" />
      <point x="616" y="746" type="line" />
      <point x="677" y="705" type="line" />
      <point x="626" y="634" type="line" />
      <point x="672" y="586" />
      <point x="720" y="446" />
    </contour>
    <contour>
      <point x="625" y="358" type="qcurve" />
      <point x="625" y="487" />
      <point x="574" y="560" type="qcurve" />
      <point x="254" y="106" type="line" />
      <point x="280" y="88" />
      <point x="349" y="68" />
      <point x="391" y="68" type="qcurve" />
      <point x="472" y="68" />
      <point x="575" y="138" />
      <point x="625" y="268" />
    </contour>
    <contour>
      <point x="156" y="358" type="qcurve" />
      <point x="156" y="297" />
      <point x="179" y="197" />
      <point x="203" y="160" type="qcurve" />
      <point x="522" y="611" type="line" />
      <point x="497" y="628" />
      <point x="432" y="646" />
      <point x="392" y="646" type="qcurve" />
      <point x="311" y="646" />
      <point x="206" y="577" />
      <point x="156" y="448" />
    </contour>
  </outline>
</glyph>
<glyph name="Thorn" format="2">
  <unicode hex="00DE" />
  <advance width="605" />
  <outline>
    <contour>
      <point x="554" y="382" type="qcurve" />
      <point x="554" y="337" />
      <point x="526" y="255" />
      <point x="460" y="192" />
      <point x="350" y="155" />
      <point x="268" y="155" type="qcurve" />
      <point x="187" y="155" type="line" />
      <point x="187" y="0" type="line" />
      <point x="97" y="0" type="line" />
      <point x="97" y="714" type="line" />
      <point x="187" y="714" type="line" />
      <point x="187" y="590" type="line" />
      <point x="283" y="590" type="line" />
      <point x="428" y="590" />
      <point x="554" y="480" />
    </contour>
    <contour>
      <point x="259" y="231" type="line" />
      <point x="329" y="231" />
      <point x="418" y="260" />
      <point x="461" y="325" />
      <point x="461" y="377" type="qcurve" />
      <point x="461" y="446" />
      <point x="374" y="513" />
      <point x="276" y="513" type="qcurve" />
      <point x="187" y="513" type="line" />
      <point x="187" y="231" type="line" />
    </contour>
  </outline>
</glyph>
<glyph name="germandbls" format="2">
  <unicode hex="00DF" />
  <advance width="631" />
  <outline>
    <contour>
      <point x="522" y="617" type="qcurve" />
      <point x="522" y="583" />
      <point x="494" y="532" />
      <point x="452" y="493" />
      <point x="410" y="461" />
      <point x="382" y="430" />
      <point x="382" y="412" type="qcurve" />
      <point x="382" y="399" />
      <point x="395" y="377" />
      <point x="433" y="348" />
      <point x="470" y="323" type="qcurve" />
      <point x="506" y="299" />
      <point x="558" y="251" />
      <point x="586" y="193" />
      <point x="586" y="153" type="qcurve" />
      <point x="586" y="96" />
      <point x="539" y="24" />
      <point x="455" y="-10" />
      <point x="400" y="-10" type="qcurve" />
      <point x="353" y="-10" />
      <point x="281" y="8" />
      <point x="255" y="24" type="qcurve" />
      <point x="255" y="103" type="line" />
      <point x="272" y="93" />
      <point x="318" y="73" />
      <point x="371" y="61" />
      <point x="397" y="61" type="qcurve" />
      <point x="452" y="61" />
      <point x="500" y="107" />
      <point x="500" y="147" type="qcurve" />
      <point x="500" y="171" />
      <point x="483" y="208" />
      <point x="442" y="244" />
      <point x="406" y="267" type="qcurve" />
      <point x="364" y="294" />
      <point x="317" y="337" />
      <point x="297" y="381" />
      <point x="297" y="407" type="qcurve" />
      <point x="297" y="438" />
      <point x="324" y="482" />
      <point x="365" y="515" />
      <point x="406" y="547" />
      <point x="433" y="585" />
      <point x="433" y="612" type="qcurve" />
      <point x="433" y="654" />
      <point x="362" y="692" />
      <point x="306" y="692" type="qcurve" />
      <point x="271" y="692" />
      <point x="210" y="673" />
      <point x="173" y="627" />
      <point x="173" y="584" type="qcurve" />
      <point x="173" y="0" type="line" />
      <point x="85" y="0" type="line" />
      <point x="85" y="584" type="line" />
      <point x="85" y="651" />
      <point x="143" y="730" />
      <point x="243" y="765" />
      <point x="306" y="765" type="qcurve" />
      <point x="371" y="765" />
      <point x="468" y="732" />
      <point x="522" y="667" />
    </contour>
  </outline>
</glyph>
<glyph name="ae" format="2">
  <unicode hex="00E6" />
  <advance width="864" />
  <outline>
    <contour>
      <point x="603" y="546" type="qcurve" />
      <point x="668" y="546" />
      <point x="762" y="486" />
      <point x="813" y="378" />
      <point x="813" y="306" type="qcurve" />
      <point x="813" y="252" type="line" />
      <point x="470" y="252" type="line" />
      <point x="472" y="156" />
      <point x="551" y="65" />
      <point x="625" y="65" type="qcurve" />
      <point x="675" y="65" />
      <point x="751" y="84" />
      <point x="789" y="102" type="qcurve" />
      <point x="789" y="25" type="line" />
      <point x="749" y="7" />
      <point x="672" y="-10" />
      <point x="622" y="-10" type="qcurve" />
      <point x="576" y="-10" />
      <point x="499" y="15" />
      <point x="440" y="66" />
      <point x="419" y="103" type="qcurve" />
      <point x="396" y="69" />
      <point x="341" y="18" />
      <point x="268" y="-10" />
      <point x="216" y="-10" type="qcurve" />
      <point x="168" y="-10" />
      <point x="91" y="24" />
      <point x="46" y="95" />
      <point x="46" y="149" type="qcurve" />
      <point x="46" y="203" />
      <point x="99" y="277" />
      <point x="208" y="318" />
      <point x="290" y="320" type="qcurve" />
      <point x="380" y="323" type="line" />
      <point x="380" y="357" type="line" />
      <point x="380" y="422" />
      <point x="319" y="474" />
      <point x="268" y="474" type="qcurve" />
      <point x="228" y="474" />
      <point x="151" y="450" />
      <point x="118" y="433" type="qcurve" />
      <point x="91" y="499" type="line" />
      <point x="126" y="519" />
      <point x="226" y="545" />
      <point x="275" y="545" type="qcurve" />
      <point x="337" y="545" />
      <point x="418" y="504" />
      <point x="439" y="459" type="qcurve" />
      <point x="465" y="500" />
      <point x="549" y="546" />
    </contour>
    <contour>
      <point x="303" y="259" type="line" />
      <point x="209" y="255" />
      <point x="137" y="199" />
      <point x="137" y="148" type="qcurve" />
      <point x="137" y="103" />
      <point x="188" y="61" />
      <point x="230" y="61" type="qcurve" />
      <point x="272" y="61" />
      <point x="339" y="94" />
      <point x="378" y="162" />
      <point x="378" y="214" type="qcurve" />
      <point x="378" y="262" type="line" />
    </contour>
    <contour>
      <point x="602" y="474" type="qcurve" />
      <point x="544" y="474" />
      <point x="477" y="395" />
      <point x="472" y="321" type="qcurve" />
      <point x="720" y="321" type="line" />
      <point x="720" y="367" />
      <point x="695" y="436" />
      <point x="643" y="474" />
    </contour>
  </outline>
</glyph>
<glyph name="eth" format="2">
  <unicode hex="00F0" />
  <advance width="605" />
  <outline>
    <contour>
      <point x="216" y="765" type="line" />
      <point x="248" y="750" />
      <point x="313" y="714" />
      <point x="342" y="693" type="qcurve" />
      <point x="457" y="760" type="line" />
      <point x="495" y="706" type="line" />
      <point x="396" y="649" type="line" />
      <point x="442" y="607" />
      <point x="511" y="494" />
      <point x="551" y="356" />
      <point x="551" y="275" type="qcurve" />
      <point x="551" y="180" />
      <point x="491" y="53" />
      <point x="379" y="-10" />
      <point x="301" y="-10" type="qcurve" />
      <point x="229" y="-10" />
      <point x="118" y="49" />
      <point x="55" y="158" />
      <point x="55" y="233" type="qcurve" />
      <point x="55" y="308" />
      <point x="113" y="415" />
      <point x="218" y="473" />
      <point x="290" y="473" type="qcurve" />
      <point x="325" y="473" />
      <point x="384" y="461" />
      <point x="430" y="435" />
      <point x="446" y="415" type="qcurve" />
      <point x="450" y="417" type="line" />
      <point x="434" y="474" />
      <point x="368" y="570" />
      <point x="326" y="608" type="qcurve" />
      <point x="196" y="533" type="line" />
      <point x="158" y="588" type="line" />
      <point x="270" y="652" type="line" />
      <point x="249" y="666" />
      <point x="203" y="693" />
      <point x="180" y="705" type="qcurve" />
    </contour>
    <contour>
      <point x="303" y="402" type="qcurve" />
      <point x="247" y="402" />
      <point x="177" y="362" />
      <point x="144" y="286" />
      <point x="144" y="230" type="qcurve" />
      <point x="144" y="181" />
      <point x="177" y="105" />
      <point x="248" y="62" />
      <point x="303" y="62" type="qcurve" />
      <point x="386" y="62" />
      <point x="462" y="159" />
      <point x="462" y="251" type="qcurve" />
      <point x="462" y="282" />
      <point x="443" y="337" />
      <point x="403" y="378" />
      <point x="344" y="402" />
    </contour>
  </outline>
</glyph>
<glyph name="divide" format="2">
  <unicode hex="00F7" />
  <advance width="572" />
  <outline>
    <contour>
      <point x="50" y="317" type="line" />
      <point x="50" y="388" type="line" />
      <point x="521" y="388" type="line" />
      <point x="521" y="317" type="line" />
    </contour>
    <contour>
      <point x="285" y="121" type="qcurve" />
      <point x="262" y="121" />
      <point x="229" y="150" />
      <point x="229" y="182" type="qcurve" />
      <point x="229" y="216" />
      <point x="262" y="242" />
      <point x="285" y="242" type="qcurve" />
      <point x="308" y="242" />
      <point x="340" y="216" />
      <point x="340" y="182" type="qcurve" />
      <point x="340" y="150" />
      <point x="308" y="121" />
    </contour>
    <contour>
      <point x="285" y="462" type="qcurve" />
      <point x="262" y="462" />
      <point x="229" y="491" />
      <point x="229" y="523" type="qcurve" />
      <point x="229" y="557" />
      <point x="262" y="583" />
      <point x="285" y="583" type="qcurve" />
      <point x="308" y="583" />
      <point x="340" y="557" />
      <point x="340" y="523" type="qcurve" />
      <point x="340" y="491" />
      <point x="308" y="462" />
    </contour>
  </outline>
</glyph>
<glyph name="oslash" format="2">
  <unicode hex="00F8" />
  <advance width="605" />
  <outline>
    <contour>
      <point x="551" y="269" type="qcurve" />
      <point x="551" y="180" />
      <point x="490" y="55" />
      <point x="378" y="-10" />
      <point x="301" y="-10" type="qcurve" />
      <point x="264" y="-10" />
      <point x="200" y="7" />
      <point x="172" y="23" type="qcurve" />
      <point x="132" y="-33" type="line" />
      <point x="74" y="6" type="line" />
      <point x="119" y="68" type="line" />
      <point x="88" y="104" />
      <point x="55" y="205" />
      <point x="55" y="269" type="qcurve" />
      <point x="55" y="402" />
      <point x="189" y="546" />
      <point x="304" y="546" type="qcurve" />
      <point x="341" y="546" />
      <point x="407" y="527" />
      <point x="435" y="510" type="qcurve" />
      <point x="474" y="566" type="line" />
      <point x="533" y="528" type="line" />
      <point x="488" y="465" type="line" />
      <point x="517" y="430" />
      <point x="551" y="331" />
    </contour>
    <contour>
      <point x="146" y="269" type="qcurve" />
      <point x="146" y="231" />
      <point x="157" y="166" />
      <point x="170" y="141" type="qcurve" />
      <point x="390" y="447" type="line" />
      <point x="373" y="459" />
      <point x="328" y="472" />
      <point x="302" y="472" type="qcurve" />
      <point x="220" y="472" />
      <point x="146" y="364" />
    </contour>
    <contour>
      <point x="460" y="269" type="qcurve" />
      <point x="460" y="306" />
      <point x="448" y="368" />
      <point x="437" y="392" type="qcurve" />
      <point x="217" y="86" type="line" />
      <point x="234" y="75" />
      <point x="278" y="63" />
      <point x="303" y="63" type="qcurve" />
      <point x="357" y="63" />
      <point x="427" y="113" />
      <point x="460" y="206" />
    </contour>
  </outline>
</glyph>
<glyph name="dcroat" format="2">
  <unicode hex="0111" />
  <advance width="617" />
  <outline>
    <contour>
      <point x="275" y="-10" type="qcurve" />
      <point x="175" y="-10" />
      <point x="55" y="129" />
      <point x="55" y="265" type="qcurve" />
      <point x="55" y="405" />
      <point x="176" y="543" />
      <point x="275" y="543" type="qcurve" />
      <point x="317" y="543" />
      <point x="380" y="522" />
      <point x="426" y="486" />
      <point x="442" y="464" type="qcurve" />
      <point x="448" y="464" type="line" />
      <point x="446" y="477" />
      <point x="442" y="528" />
      <point x="442" y="544" type="qcurve" />
      <point x="442" y="605" type="line" />
      <point x="229" y="605" type="line" />
      <point x="229" y="671" type="line" />
      <point x="442" y="671" type="line" />
      <point x="442" y="760" type="line" />
      <point x="530" y="760" type="line" />
      <point x="530" y="671" type="line" />
      <point x="606" y="671" type="line" />
      <point x="606" y="605" type="line" />
      <point x="530" y="605" type="line" />
      <point x="530" y="0" type="line" />
      <point x="458" y="0" type="line" />
      <point x="445" y="72" type="line" />
      <point x="441" y="72" type="line" />
      <point x="425" y="49" />
      <point x="379" y="12" />
      <point x="317" y="-10" />
    </contour>
    <contour>
      <point x="290" y="63" type="qcurve" />
      <point x="374" y="63" />
      <point x="443" y="155" />
      <point x="443" y="248" type="qcurve" />
      <point x="443" y="265" type="line" />
      <point x="443" y="366" />
      <point x="377" y="470" />
      <point x="288" y="470" type="qcurve" />
      <point x="217" y="470" />
      <point x="147" y="360" />
      <point x="147" y="264" type="qcurve" />
      <point x="147" y="168" />
      <point x="217" y="63" />
    </contour>
  </outline>
</glyph>
<glyph name="eogonek" format="2">
  <unicode hex="0119" />
  <advance width="564" />
  <outline>
    <contour>
      <point x="389" y="-116" type="qcurve" />
      <point x="389" y="-138" />
      <point x="413" y="-161" />
      <point x="434" y="-161" type="qcurve" />
      <point x="451" y="-161" />
      <point x="474" y="-156" />
      <point x="482" y="-155" type="qcurve" />
      <point x="482" y="-211" type="line" />
      <point x="468" y="-215" />
      <point x="440" y="-220" />
      <point x="420" y="-220" type="qcurve" />
      <point x="367" y="-220" />
      <point x="317" y="-170" />
      <point x="317" y="-126" type="qcurve" />
      <point x="317" y="-97" />
      <point x="346" y="-43" />
      <point x="389" y="1" />
      <point x="409" y="15" type="qcurve" />
      <point x="489" y="25" type="line" />
      <point x="449" y="-7" />
      <point x="405" y="-55" />
      <point x="389" y="-95" />
    </contour>
    <contour>
      <point x="292" y="546" type="qcurve" />
      <point x="361" y="546" />
      <point x="460" y="486" />
      <point x="513" y="377" />
      <point x="513" y="304" type="qcurve" />
      <point x="513" y="251" type="line" />
      <point x="146" y="251" type="line" />
      <point x="148" y="160" />
      <point x="237" y="65" />
      <point x="317" y="65" type="qcurve" />
      <point x="368" y="65" />
      <point x="447" y="84" />
      <point x="489" y="102" type="qcurve" />
      <point x="489" y="25" type="line" />
      <point x="448" y="7" />
      <point x="368" y="-10" />
      <point x="313" y="-10" type="qcurve" />
      <point x="237" y="-10" />
      <point x="120" y="52" />
      <point x="55" y="175" />
      <point x="55" y="264" type="qcurve" />
      <point x="55" y="352" />
      <point x="114" y="478" />
      <point x="221" y="546" />
    </contour>
    <contour>
      <point x="291" y="474" type="qcurve" />
      <point x="228" y="474" />
      <point x="155" y="393" />
      <point x="148" y="321" type="qcurve" />
      <point x="421" y="321" type="line" />
      <point x="421" y="367" />
      <point x="393" y="435" />
      <point x="336" y="474" />
    </contour>
  </outline>
</glyph>
<glyph name="uni0123" format="2">
  <unicode hex="0123" />
  <advance width="615" />
  <outline>
    <contour>
      <point x="363" y="754" type="line" />
      <point x="355" y="737" />
      <point x="338" y="684" />
      <point x="324" y="628" />
      <point x="321" y="606" type="qcurve" />
      <point x="234" y="606" type="line" />
      <point x="234" y="615" type="line" />
      <point x="239" y="633" />
      <point x="263" y="687" />
      <point x="296" y="744" />
      <point x="314" y="766" type="qcurve" />
      <point x="363" y="766" type="line" />
    </contour>
    <contour>
      <point x="275" y="546" type="qcurve" />
      <point x="328" y="546" />
      <point x="413" y="506" />
      <point x="443" y="465" type="qcurve" />
      <point x="448" y="465" type="line" />
      <point x="460" y="536" type="line" />
      <point x="530" y="536" type="line" />
      <point x="530" y="-9" type="line" />
      <point x="530" y="-85" />
      <point x="478" y="-188" />
      <point x="372" y="-240" />
      <point x="290" y="-240" type="qcurve" />
      <point x="232" y="-240" />
      <point x="135" y="-223" />
      <point x="97" y="-206" type="qcurve" />
      <point x="97" y="-125" type="line" />
      <point x="135" y="-145" />
      <point x="237" y="-167" />
      <point x="295" y="-167" type="qcurve" />
      <point x="364" y="-167" />
      <point x="443" y="-86" />
      <point x="443" y="-16" type="qcurve" />
      <point x="443" y="5" type="line" />
      <point x="443" y="17" />
      <point x="445" y="62" />
      <point x="446" y="71" type="qcurve" />
      <point x="442" y="71" type="line" />
      <point x="414" y="30" />
      <point x="331" y="-10" />
      <point x="276" y="-10" type="qcurve" />
      <point x="172" y="-10" />
      <point x="55" y="136" />
      <point x="55" y="267" type="qcurve" />
      <point x="55" y="395" />
      <point x="172" y="546" />
    </contour>
    <contour>
      <point x="287" y="472" type="qcurve" />
      <point x="242" y="472" />
      <point x="179" y="424" />
      <point x="146" y="332" />
      <point x="146" y="266" type="qcurve" />
      <point x="146" y="167" />
      <point x="219" y="62" />
      <point x="289" y="62" type="qcurve" />
      <point x="330" y="62" />
      <point x="388" y="83" />
      <point x="426" y="128" />
      <point x="444" y="198" />
      <point x="444" y="246" type="qcurve" />
      <point x="444" y="267" type="line" />
      <point x="444" y="340" />
      <point x="411" y="430" />
      <point x="341" y="472" />
    </contour>
  </outline>
</glyph>
<glyph name="Hbar" format="2">
  <unicode hex="0126" />
  <advance width="741" />
  <outline>
    <contour>
      <point x="97" y="0" type="line" />
      <point x="97" y="523" type="line" />
      <point x="0" y="523" type="line" />
      <point x="0" y="595" type="line" />
      <point x="97" y="595" type="line" />
      <point x="97" y="714" type="line" />
      <point x="187" y="714" type="line" />
      <point x="187" y="595" type="line" />
      <point x="553" y="595" type="line" />
      <point x="553" y="714" type="line" />
      <point x="643" y="714" type="line" />
      <point x="643" y="595" type="line" />
      <point x="740" y="595" type="line" />
      <point x="740" y="523" type="line" />
      <point x="643" y="523" type="line" />
      <point x="643" y="0" type="line" />
      <point x="553" y="0" type="line" />
      <point x="553" y="333" type="line" />
      <point x="187" y="333" type="line" />
      <point x="187" y="0" type="line" />
    </contour>
    <contour>
      <point x="187" y="412" type="line" />
      <point x="553" y="412" type="line" />
      <point x="553" y="523" type="line" />
      <point x="187" y="523" type="line" />
    </contour>
  </outline>
</glyph>
<glyph name="hbar" format="2">
  <unicode hex="0127" />
  <advance width="618" />
  <outline>
    <contour>
      <point x="173" y="760" type="line" />
      <point x="173" y="670" type="line" />
      <point x="385" y="670" type="line" />
      <point x="385" y="604" type="line" />
      <point x="173" y="604" type="line" />
      <point x="173" y="517" type="line" />
      <point x="173" y="498" />
      <point x="170" y="459" />
      <point x="168" y="443" type="qcurve" />
      <point x="174" y="443" type="line" />
      <point x="191" y="471" />
      <point x="243" y="507" />
      <point x="307" y="526" />
      <point x="342" y="526" type="qcurve" />
      <point x="407" y="526" />
      <point x="493" y="485" />
      <point x="537" y="398" />
      <point x="537" y="329" type="qcurve" />
      <point x="537" y="0" type="line" />
      <point x="450" y="0" type="line" />
      <point x="450" y="323" type="line" />
      <point x="450" y="388" />
      <point x="392" y="452" />
      <point x="330" y="452" type="qcurve" />
      <point x="270" y="452" />
      <point x="202" y="407" />
      <point x="173" y="321" />
      <point x="173" y="258" type="qcurve" />
      <point x="173" y="0" type="line" />
      <point x="85" y="0" type="line" />
      <point x="85" y="604" type="line" />
      <point x="9" y="604" type="line" />
      <point x="9" y="670" type="line" />
      <point x="85" y="670" type="line" />
      <point x="85" y="760" type="line" />
    </contour>
  </outline>
</glyph>
<glyph name="kgreenlandic" format="2">
  <unicode hex="0138" />
  <advance width="534" />
  <outline>
    <contour>
      <point x="509" y="536" type="line" />
      <point x="306" y="299" type="line" />
      <point x="525" y="0" type="line" />
      <point x="420" y="0" type="line" />
      <point x="244" y="242" type="line" />
      <point x="178" y="188" type="line" />
      <point x="178" y="0" type="line" />
      <point x="85" y="0" type="line" />
      <point x="85" y="536" type="line" />
      <point x="178" y="536" type="line" />
      <point x="178" y="397" type="line" />
      <point x="178" y="357" />
      <point x="174" y="281" />
      <point x="172" y="261" type="qcurve" />
      <point x="174" y="261" type="line" />
      <point x="183" y="274" />
      <point x="204" y="301" />
      <point x="213" y="312" type="qcurve" />
      <point x="403" y="536" type="line" />
    </contour>
  </outline>
</glyph>
<glyph name="Lcaron" format="2">
  <unicode hex="013D" />
  <advance width="524" />
  <outline>
    <contour>
      <point x="499" y="705" type="line" />
      <point x="495" y="687" />
      <point x="472" y="633" />
      <point x="442" y="576" />
      <point x="427" y="554" type="qcurve" />
      <point x="379" y="554" type="line" />
      <point x="379" y="566" type="line" />
      <point x="384" y="580" />
      <point x="394" y="618" />
      <point x="403" y="659" />
      <point x="410" y="698" />
      <point x="412" y="714" type="qcurve" />
      <point x="499" y="714" type="line" />
    </contour>
    <contour>
      <point x="97" y="0" type="line" />
      <point x="97" y="714" type="line" />
      <point x="187" y="714" type="line" />
      <point x="187" y="80" type="line" />
      <point x="499" y="80" type="line" />
      <point x="499" y="0" type="line" />
    </contour>
  </outline>
</glyph>
<glyph name="lcaron" format="2">
  <unicode hex="013E" />
  <advance width="258" />
  <outline>
    <contour>
      <point x="337" y="751" type="line" />
      <point x="333" y="733" />
      <point x="310" y="679" />
      <point x="280" y="622" />
      <point x="265" y="600" type="qcurve" />
      <point x="217" y="600" type="line" />
      <point x="217" y="612" type="line" />
      <point x="222" y="626" />
      <point x="232" y="664" />
      <point x="241" y="705" />
      <point x="248" y="744" />
      <point x="250" y="760" type="qcurve" />
      <point x="337" y="760" type="line" />
    </contour>
    <contour>
      <point x="173" y="0" type="line" />
      <point x="85" y="0" type="line" />
      <point x="85" y="760" type="line" />
      <point x="173" y="760" type="line" />
    </contour>
  </outline>
</glyph>
<glyph name="Lslash" format="2">
  <unicode hex="0141" />
  <advance width="524" />
  <outline>
    <contour>
      <point x="97" y="0" type="line" />
      <point x="97" y="247" type="line" />
      <point x="48" y="219" type="line" />
      <point x="13" y="279" type="line" />
      <point x="97" y="329" type="line" />
      <point x="97" y="714" type="line" />
      <point x="187" y="714" type="line" />
      <point x="187" y="382" type="line" />
      <point x="324" y="463" type="line" />
      <point x="360" y="400" type="line" />
      <point x="187" y="300" type="line" />
      <point x="187" y="80" type="line" />
      <point x="499" y="80" type="line" />
      <point x="499" y="0" type="line" />
    </contour>
  </outline>
</glyph>
<glyph name="Eng" format="2">
  <unicode hex="014A" />
  <advance width="760" />
  <outline>
    <contour>
      <point x="475" y="-190" type="qcurve" />
      <point x="450" y="-190" />
      <point x="413" y="-183" />
      <point x="399" y="-177" type="qcurve" />
      <point x="399" y="-101" type="line" />
      <point x="415" y="-105" />
      <point x="453" y="-111" />
      <point x="475" y="-111" type="qcurve" />
      <point x="501" y="-111" />
      <point x="548" y="-92" />
      <point x="579" y="-43" />
      <point x="579" y="0" type="qcurve" />
      <point x="176" y="593" type="line" />
      <point x="172" y="593" type="line" />
      <point x="174" y="574" />
      <point x="177" y="504" />
      <point x="180" y="424" />
      <point x="180" y="387" type="qcurve" />
      <point x="180" y="0" type="line" />
      <point x="97" y="0" type="line" />
      <point x="97" y="714" type="line" />
      <point x="201" y="714" type="line" />
      <point x="582" y="142" type="line" />
      <point x="586" y="142" type="line" />
      <point x="584" y="164" />
      <point x="581" y="229" />
      <point x="579" y="305" />
      <point x="579" y="342" type="qcurve" />
      <point x="579" y="714" type="line" />
      <point x="663" y="714" type="line" />
      <point x="663" y="6" type="line" />
      <point x="663" y="-61" />
      <point x="617" y="-148" />
      <point x="533" y="-190" />
    </contour>
  </outline>
</glyph>
<glyph name="eng" format="2">
  <unicode hex="014B" />
  <advance width="618" />
  <outline>
    <contour>
      <point x="394" y="-240" type="qcurve" />
      <point x="370" y="-240" />
      <point x="336" y="-233" />
      <point x="323" y="-228" type="qcurve" />
      <point x="323" y="-157" type="line" />
      <point x="337" y="-161" />
      <point x="365" y="-167" />
      <point x="383" y="-167" type="qcurve" />
      <point x="412" y="-167" />
      <point x="450" y="-132" />
      <point x="450" y="-83" type="qcurve" />
      <point x="450" y="344" type="line" />
      <point x="450" y="409" />
      <point x="392" y="472" />
      <point x="331" y="472" type="qcurve" />
      <point x="272" y="472" />
      <point x="202" y="428" />
      <point x="173" y="342" />
      <point x="173" y="279" type="qcurve" />
      <point x="173" y="0" type="line" />
      <point x="85" y="0" type="line" />
      <point x="85" y="536" type="line" />
      <point x="156" y="536" type="line" />
      <point x="170" y="463" type="line" />
      <point x="175" y="463" type="line" />
      <point x="193" y="491" />
      <point x="244" y="528" />
      <point x="308" y="546" />
      <point x="342" y="546" type="qcurve" />
      <point x="408" y="546" />
      <point x="495" y="505" />
      <point x="538" y="419" />
      <point x="538" y="350" type="qcurve" />
      <point x="538" y="-80" type="line" />
      <point x="538" y="-130" />
      <point x="507" y="-202" />
      <point x="444" y="-240" />
    </contour>
  </outline>
</glyph>
<glyph name="OE" format="2">
  <unicode hex="0152" />
  <advance width="928" />
  <outline>
    <contour>
      <point x="386" y="725" type="qcurve" />
      <point x="412" y="725" />
      <point x="460" y="719" />
      <point x="482" y="714" type="qcurve" />
      <point x="868" y="714" type="line" />
      <point x="868" y="635" type="line" />
      <point x="581" y="635" type="line" />
      <point x="581" y="412" type="line" />
      <point x="849" y="412" type="line" />
      <point x="849" y="334" type="line" />
      <point x="581" y="334" type="line" />
      <point x="581" y="79" type="line" />
      <point x="868" y="79" type="line" />
      <point x="868" y="0" type="line" />
      <point x="488" y="0" type="line" />
      <point x="466" y="-4" />
      <point x="417" y="-10" />
      <point x="391" y="-10" type="qcurve" />
      <point x="280" y="-10" />
      <point x="133" y="82" />
      <point x="61" y="248" />
      <point x="61" y="359" type="qcurve" />
      <point x="61" y="470" />
      <point x="132" y="634" />
      <point x="277" y="725" />
    </contour>
    <contour>
      <point x="394" y="646" type="qcurve" />
      <point x="333" y="646" />
      <point x="242" y="607" />
      <point x="184" y="532" />
      <point x="155" y="426" />
      <point x="155" y="358" type="qcurve" />
      <point x="155" y="268" />
      <point x="206" y="138" />
      <point x="312" y="68" />
      <point x="393" y="68" type="qcurve" />
      <point x="421" y="68" />
      <point x="472" y="77" />
      <point x="492" y="85" type="qcurve" />
      <point x="492" y="630" type="line" />
      <point x="471" y="638" />
      <point x="422" y="646" />
    </contour>
  </outline>
</glyph>
<glyph name="oe" format="2">
  <unicode hex="0153" />
  <advance width="946" />
  <outline>
    <contour>
      <point x="677" y="545" type="qcurve" />
      <point x="745" y="545" />
      <point x="842" y="485" />
      <point x="894" y="377" />
      <point x="894" y="304" type="qcurve" />
      <point x="894" y="251" type="line" />
      <point x="538" y="251" type="line" />
      <point x="540" y="155" />
      <point x="623" y="65" />
      <point x="700" y="65" type="qcurve" />
      <point x="753" y="65" />
      <point x="830" y="84" />
      <point x="870" y="102" type="qcurve" />
      <point x="870" y="25" type="line" />
      <point x="830" y="7" />
      <point x="752" y="-10" />
      <point x="699" y="-10" type="qcurve" />
      <point x="631" y="-10" />
      <point x="527" y="46" />
      <point x="495" y="101" type="qcurve" />
      <point x="464" y="46" />
      <point x="362" y="-10" />
      <point x="296" y="-10" type="qcurve" />
      <point x="226" y="-10" />
      <point x="117" y="55" />
      <point x="54" y="180" />
      <point x="54" y="269" type="qcurve" />
      <point x="54" y="357" />
      <point x="113" y="480" />
      <point x="223" y="545" />
      <point x="299" y="545" type="qcurve" />
      <point x="362" y="545" />
      <point x="462" y="489" />
      <point x="492" y="435" type="qcurve" />
      <point x="512" y="471" />
      <point x="567" y="520" />
      <point x="636" y="545" />
    </contour>
    <contour>
      <point x="295" y="472" type="qcurve" />
      <point x="216" y="472" />
      <point x="146" y="370" />
      <point x="146" y="269" type="qcurve" />
      <point x="146" y="202" />
      <point x="177" y="110" />
      <point x="244" y="63" />
      <point x="297" y="63" type="qcurve" />
      <point x="349" y="63" />
      <point x="415" y="109" />
      <point x="447" y="199" />
      <point x="447" y="265" type="qcurve" />
      <point x="447" y="335" />
      <point x="415" y="426" />
      <point x="348" y="472" />
    </contour>
    <contour>
      <point x="676" y="473" type="qcurve" />
      <point x="616" y="473" />
      <point x="546" y="395" />
      <point x="540" y="321" type="qcurve" />
      <point x="801" y="321" type="line" />
      <point x="801" y="367" />
      <point x="775" y="435" />
      <point x="720" y="473" />
    </contour>
  </outline>
</glyph>
<glyph name="tcaron" format="2">
  <unicode hex="0165" />
  <advance width="361" />
  <outline>
    <contour>
      <point x="470" y="751" type="line" />
      <point x="466" y="733" />
      <point x="443" y="679" />
      <point x="413" y="622" />
      <point x="398" y="600" type="qcurve" />
      <point x="350" y="600" type="line" />
      <point x="350" y="612" type="line" />
      <point x="355" y="626" />
      <point x="365" y="664" />
      <point x="374" y="705" />
      <point x="381" y="744" />
      <point x="383" y="760" type="qcurve" />
      <point x="470" y="760" type="line" />
    </contour>
    <contour>
      <point x="264" y="62" type="qcurve" />
      <point x="284" y="62" />
      <point x="326" y="69" />
      <point x="339" y="73" type="qcurve" />
      <point x="339" y="6" type="line" />
      <point x="325" y="-1" />
      <point x="273" y="-10" />
      <point x="249" y="-10" type="qcurve" />
      <point x="207" y="-10" />
      <point x="136" y="19" />
      <point x="92" y="91" />
      <point x="92" y="156" type="qcurve" />
      <point x="92" y="468" type="line" />
      <point x="16" y="468" type="line" />
      <point x="16" y="510" type="line" />
      <point x="93" y="545" type="line" />
      <point x="128" y="659" type="line" />
      <point x="180" y="659" type="line" />
      <point x="180" y="536" type="line" />
      <point x="335" y="536" type="line" />
      <point x="335" y="468" type="line" />
      <point x="180" y="468" type="line" />
      <point x="180" y="158" type="line" />
      <point x="180" y="109" />
      <point x="227" y="62" />
    </contour>
  </outline>
</glyph>
<glyph name="Tbar" format="2">
  <unicode hex="0166" />
  <advance width="556" />
  <outline>
    <contour>
      <point x="232" y="0" type="line" />
      <point x="232" y="325" type="line" />
      <point x="83" y="325" type="line" />
      <point x="83" y="399" type="line" />
      <point x="232" y="399" type="line" />
      <point x="232" y="634" type="line" />
      <point x="10" y="634" type="line" />
      <point x="10" y="714" type="line" />
      <point x="545" y="714" type="line" />
      <point x="545" y="634" type="line" />
      <point x="322" y="634" type="line" />
      <point x="322" y="399" type="line" />
      <point x="470" y="399" type="line" />
      <point x="470" y="325" type="line" />
      <point x="322" y="325" type="line" />
      <point x="322" y="0" type="line" />
    </contour>
  </outline>
</glyph>
<glyph name="Uogonek" format="2">
  <unicode hex="0172" />
  <advance width="731" />
  <outline>
    <contour>
      <point x="466" y="-107" type="qcurve" />
      <point x="466" y="-136" />
      <point x="490" y="-161" />
      <point x="511" y="-161" type="qcurve" />
      <point x="528" y="-161" />
      <point x="551" y="-156" />
      <point x="559" y="-155" type="qcurve" />
      <point x="559" y="-211" type="line" />
      <point x="545" y="-215" />
      <point x="517" y="-220" />
      <point x="497" y="-220" type="qcurve" />
      <point x="444" y="-220" />
      <point x="394" y="-168" />
      <point x="394" y="-117" type="qcurve" />
      <point x="394" y="-85" />
      <point x="426" y="-24" />
      <point x="472" y="26" />
      <point x="492" y="40" type="qcurve" />
      <point x="555" y="51" type="line" />
      <point x="525" y="17" />
      <point x="485" y="-37" />
      <point x="466" y="-83" />
    </contour>
    <contour>
      <point x="640" y="252" type="line" />
      <point x="640" y="178" />
      <point x="580" y="59" />
      <point x="457" y="-10" />
      <point x="362" y="-10" type="qcurve" />
      <point x="229" y="-10" />
      <point x="90" y="135" />
      <point x="90" y="254" type="qcurve" />
      <point x="90" y="714" type="line" />
      <point x="180" y="714" type="line" />
      <point x="180" y="251" type="line" />
      <point x="180" y="164" />
      <point x="273" y="68" />
      <point x="367" y="68" type="qcurve" />
      <point x="432" y="68" />
      <point x="513" y="115" />
      <point x="551" y="198" />
      <point x="551" y="252" type="qcurve" />
      <point x="551" y="714" type="line" />
      <point x="640" y="714" type="line" />
    </contour>
  </outline>
</glyph>
<glyph name="uni0181" format="2">
  <unicode hex="0181" />
  <advance width="730" />
  <outline>
    <contour>
      <point x="177" y="0" type="line" />
      <point x="177" y="637" type="line" />
      <point x="151" y="637" type="line" />
      <point x="120" y="637" />
      <point x="90" y="610" />
      <point x="90" y="587" type="qcurve" />
      <point x="90" y="571" />
      <point x="97" y="540" />
      <point x="100" y="533" type="qcurve" />
      <point x="21" y="533" type="line" />
      <point x="17" y="544" />
      <point x="10" y="576" />
      <point x="10" y="588" type="qcurve" />
      <point x="10" y="631" />
      <point x="41" y="687" />
      <point x="103" y="714" />
      <point x="151" y="714" type="qcurve" />
      <point x="381" y="714" type="line" />
      <point x="470" y="714" />
      <point x="591" y="680" />
      <point x="652" y="602" />
      <point x="652" y="537" type="qcurve" />
      <point x="652" y="474" />
      <point x="582" y="391" />
      <point x="516" y="379" type="qcurve" />
      <point x="516" y="374" type="line" />
      <point x="561" y="367" />
      <point x="634" y="329" />
      <point x="676" y="259" />
      <point x="676" y="203" type="qcurve" />
      <point x="676" y="138" />
      <point x="616" y="47" />
      <point x="505" y="0" />
      <point x="428" y="0" type="qcurve" />
    </contour>
    <contour>
      <point x="411" y="76" type="line" />
      <point x="506" y="76" />
      <point x="580" y="150" />
      <point x="580" y="210" type="qcurve" />
      <point x="580" y="248" />
      <point x="547" y="304" />
      <point x="470" y="335" />
      <point x="404" y="335" type="qcurve" />
      <point x="267" y="335" type="line" />
      <point x="267" y="76" type="line" />
    </contour>
    <contour>
      <point x="399" y="410" type="line" />
      <point x="491" y="410" />
      <point x="559" y="469" />
      <point x="559" y="527" type="qcurve" />
      <point x="559" y="586" />
      <point x="476" y="637" />
      <point x="385" y="637" type="qcurve" />
      <point x="267" y="637" type="line" />
      <point x="267" y="410" type="line" />
    </contour>
  </outline>
</glyph>
<glyph name="uni0182" format="2">
  <unicode hex="0182" />
  <advance width="615" />
  <outline>
    <contour>
      <point x="97" y="0" type="line" />
      <point x="97" y="714" type="line" />
      <point x="521" y="714" type="line" />
      <point x="521" y="635" type="line" />
      <point x="187" y="635" type="line" />
      <point x="187" y="412" type="line" />
      <point x="293" y="412" type="line" />
      <point x="400" y="412" />
      <point x="518" y="359" />
      <point x="564" y="268" />
      <point x="564" y="209" type="qcurve" />
      <point x="564" y="111" />
      <point x="446" y="0" />
      <point x="306" y="0" type="qcurve" />
    </contour>
    <contour>
      <point x="297" y="77" type="line" />
      <point x="393" y="77" />
      <point x="471" y="142" />
      <point x="471" y="209" type="qcurve" />
      <point x="471" y="255" />
      <point x="434" y="310" />
      <point x="351" y="334" />
      <point x="282" y="334" type="qcurve" />
      <point x="187" y="334" type="line" />
      <point x="187" y="77" type="line" />
    </contour>
  </outline>
</glyph>
<glyph name="uni0184" format="2">
  <unicode hex="0184" />
  <advance width="635" />
  <outline>
    <contour>
      <point x="341" y="-10" type="qcurve" />
      <point x="248" y="-10" />
      <point x="138" y="46" />
      <point x="90" y="145" />
      <point x="90" y="210" type="qcurve" />
      <point x="90" y="714" type="line" />
      <point x="180" y="714" type="line" />
      <point x="180" y="412" type="line" />
      <point x="314" y="412" type="line" />
      <point x="414" y="412" />
      <point x="532" y="356" />
      <point x="584" y="262" />
      <point x="584" y="205" type="qcurve" />
      <point x="584" y="111" />
      <point x="464" y="-10" />
    </contour>
    <contour>
      <point x="340" y="67" type="qcurve" />
      <point x="420" y="67" />
      <point x="491" y="138" />
      <point x="491" y="205" type="qcurve" />
      <point x="491" y="251" />
      <point x="448" y="308" />
      <point x="365" y="334" />
      <point x="303" y="334" type="qcurve" />
      <point x="180" y="334" type="line" />
      <point x="180" y="210" type="line" />
      <point x="180" y="132" />
      <point x="255" y="67" />
    </contour>
  </outline>
</glyph>
<glyph name="uni0185" format="2">
  <unicode hex="0185" />
  <advance width="612" />
  <outline>
    <contour>
      <point x="322" y="-10" type="qcurve" />
      <point x="249" y="-10" />
      <point x="141" y="52" />
      <point x="82" y="175" />
      <point x="82" y="267" type="qcurve" />
      <point x="82" y="760" type="line" />
      <point x="170" y="760" type="line" />
      <point x="170" y="575" type="line" />
      <point x="170" y="541" />
      <point x="167" y="482" />
      <point x="165" y="465" type="qcurve" />
      <point x="170" y="465" type="line" />
      <point x="193" y="499" />
      <point x="273" y="545" />
      <point x="336" y="545" type="qcurve" />
      <point x="403" y="545" />
      <point x="502" y="483" />
      <point x="557" y="360" />
      <point x="557" y="268" type="qcurve" />
      <point x="557" y="176" />
      <point x="500" y="52" />
      <point x="395" y="-10" />
    </contour>
    <contour>
      <point x="323" y="63" type="qcurve" />
      <point x="395" y="63" />
      <point x="466" y="169" />
      <point x="466" y="269" type="qcurve" />
      <point x="466" y="370" />
      <point x="395" y="472" />
      <point x="321" y="472" type="qcurve" />
      <point x="236" y="472" />
      <point x="170" y="374" />
      <point x="170" y="271" type="qcurve" />
      <point x="170" y="265" type="line" />
      <point x="170" y="169" />
      <point x="251" y="63" />
    </contour>
  </outline>
</glyph>
<glyph name="uni0186" format="2">
  <unicode hex="0186" />
  <advance width="632" />
  <outline>
    <contour>
      <point x="243" y="-10" type="qcurve" />
      <point x="184" y="-10" />
      <point x="99" y="4" />
      <point x="59" y="19" type="qcurve" />
      <point x="59" y="97" type="line" />
      <point x="100" y="85" />
      <point x="183" y="69" />
      <point x="229" y="69" type="qcurve" />
      <point x="306" y="69" />
      <point x="416" y="138" />
      <point x="476" y="268" />
      <point x="476" y="357" type="qcurve" />
      <point x="476" y="423" />
      <point x="445" y="530" />
      <point x="383" y="605" />
      <point x="291" y="645" />
      <point x="229" y="645" type="qcurve" />
      <point x="181" y="645" />
      <point x="100" y="621" />
      <point x="67" y="606" type="qcurve" />
      <point x="31" y="682" type="line" />
      <point x="72" y="702" />
      <point x="178" y="724" />
      <point x="243" y="724" type="qcurve" />
      <point x="325" y="724" />
      <point x="448" y="673" />
      <point x="530" y="576" />
      <point x="571" y="440" />
      <point x="571" y="356" type="qcurve" />
      <point x="571" y="248" />
      <point x="493" y="83" />
      <point x="347" y="-10" />
    </contour>
  </outline>
</glyph>
<glyph name="uni0187" format="2">
  <unicode hex="0187" />
  <advance width="632" />
  <outline>
    <contour>
      <point x="636" y="858" type="qcurve" />
      <point x="655" y="858" />
      <point x="686" y="850" />
      <point x="696" y="845" type="qcurve" />
      <point x="696" y="773" type="line" />
      <point x="689" y="776" />
      <point x="661" y="783" />
      <point x="644" y="783" type="qcurve" />
      <point x="622" y="783" />
      <point x="597" y="759" />
      <point x="597" y="735" type="qcurve" />
      <point x="597" y="684" type="line" />
      <point x="561" y="606" type="line" />
      <point x="528" y="621" />
      <point x="451" y="645" />
      <point x="403" y="645" type="qcurve" />
      <point x="346" y="645" />
      <point x="254" y="606" />
      <point x="190" y="531" />
      <point x="156" y="424" />
      <point x="156" y="357" type="qcurve" />
      <point x="156" y="269" />
      <point x="211" y="139" />
      <point x="320" y="69" />
      <point x="402" y="69" type="qcurve" />
      <point x="449" y="69" />
      <point x="533" y="85" />
      <point x="573" y="97" type="qcurve" />
      <point x="573" y="19" type="line" />
      <point x="533" y="4" />
      <point x="448" y="-10" />
      <point x="389" y="-10" type="qcurve" />
      <point x="280" y="-10" />
      <point x="134" y="80" />
      <point x="61" y="246" />
      <point x="61" y="358" type="qcurve" />
      <point x="61" y="439" />
      <point x="106" y="573" />
      <point x="193" y="671" />
      <point x="321" y="724" />
      <point x="404" y="724" type="qcurve" />
      <point x="434" y="724" />
      <point x="493" y="717" />
      <point x="521" y="710" type="qcurve" />
      <point x="521" y="724" type="line" />
      <point x="521" y="767" />
      <point x="544" y="827" />
      <point x="595" y="858" />
    </contour>
  </outline>
</glyph>
<glyph name="uni0188" format="2">
  <unicode hex="0188" />
  <advance width="503" />
  <outline>
    <contour>
      <point x="300" y="-10" type="qcurve" />
      <point x="229" y="-10" />
      <point x="118" y="48" />
      <point x="55" y="170" />
      <point x="55" y="265" type="qcurve" />
      <point x="55" y="364" />
      <point x="121" y="488" />
      <point x="234" y="546" />
      <point x="306" y="546" type="qcurve" />
      <point x="323" y="546" />
      <point x="355" y="542" />
      <point x="371" y="540" type="qcurve" />
      <point x="371" y="631" type="line" />
      <point x="371" y="674" />
      <point x="394" y="734" />
      <point x="445" y="765" />
      <point x="486" y="765" type="qcurve" />
      <point x="505" y="765" />
      <point x="536" y="757" />
      <point x="546" y="752" type="qcurve" />
      <point x="546" y="679" type="line" />
      <point x="539" y="682" />
      <point x="511" y="689" />
      <point x="494" y="689" type="qcurve" />
      <point x="472" y="689" />
      <point x="447" y="665" />
      <point x="447" y="641" type="qcurve" />
      <point x="447" y="517" type="line" />
      <point x="420" y="444" type="line" />
      <point x="396" y="453" />
      <point x="332" y="469" />
      <point x="304" y="469" type="qcurve" />
      <point x="250" y="469" />
      <point x="180" y="423" />
      <point x="146" y="333" />
      <point x="146" y="266" type="qcurve" />
      <point x="146" y="202" />
      <point x="180" y="112" />
      <point x="248" y="66" />
      <point x="299" y="66" type="qcurve" />
      <point x="343" y="66" />
      <point x="410" y="84" />
      <point x="438" y="97" type="qcurve" />
      <point x="438" y="19" type="line" />
      <point x="411" y="5" />
      <point x="346" y="-10" />
    </contour>
  </outline>
</glyph>
<glyph name="uni018A" format="2">
  <unicode hex="018A" />
  <advance width="810" />
  <outline>
    <contour>
      <point x="177" y="0" type="line" />
      <point x="177" y="637" type="line" />
      <point x="151" y="637" type="line" />
      <point x="120" y="637" />
      <point x="90" y="610" />
      <point x="90" y="587" type="qcurve" />
      <point x="90" y="571" />
      <point x="97" y="540" />
      <point x="100" y="533" type="qcurve" />
      <point x="21" y="533" type="line" />
      <point x="17" y="544" />
      <point x="10" y="576" />
      <point x="10" y="588" type="qcurve" />
      <point x="10" y="631" />
      <point x="41" y="687" />
      <point x="103" y="714" />
      <point x="151" y="714" type="qcurve" />
      <point x="397" y="714" type="line" />
      <point x="505" y="714" />
      <point x="663" y="634" />
      <point x="749" y="479" />
      <point x="749" y="364" type="qcurve" />
      <point x="749" y="244" />
      <point x="660" y="82" />
      <point x="494" y="0" />
      <point x="376" y="0" type="qcurve" />
    </contour>
    <contour>
      <point x="364" y="77" type="line" />
      <point x="509" y="77" />
      <point x="654" y="220" />
      <point x="654" y="361" type="qcurve" />
      <point x="654" y="456" />
      <point x="591" y="578" />
      <point x="470" y="637" />
      <point x="384" y="637" type="qcurve" />
      <point x="267" y="637" type="line" />
      <point x="267" y="77" type="line" />
    </contour>
  </outline>
</glyph>
<glyph name="uni018B" format="2">
  <unicode hex="018B" />
  <advance width="615" />
  <outline>
    <contour>
      <point x="319" y="0" type="line" />
      <point x="179" y="0" />
      <point x="51" y="104" />
      <point x="51" y="198" type="qcurve" />
      <point x="51" y="254" />
      <point x="104" y="352" />
      <point x="229" y="412" />
      <point x="336" y="412" type="qcurve" />
      <point x="428" y="412" type="line" />
      <point x="428" y="635" type="line" />
      <point x="94" y="635" type="line" />
      <point x="94" y="714" type="line" />
      <point x="518" y="714" type="line" />
      <point x="518" y="0" type="line" />
    </contour>
    <contour>
      <point x="327" y="77" type="qcurve" />
      <point x="428" y="77" type="line" />
      <point x="428" y="335" type="line" />
      <point x="346" y="335" type="line" />
      <point x="278" y="335" />
      <point x="188" y="309" />
      <point x="144" y="250" />
      <point x="144" y="202" type="qcurve" />
      <point x="144" y="139" />
      <point x="233" y="77" />
    </contour>
  </outline>
</glyph>
<glyph name="uni018C" format="2">
  <unicode hex="018C" />
  <advance width="615" />
  <outline>
    <contour>
      <point x="275" y="-10" type="qcurve" />
      <point x="209" y="-10" />
      <point x="110" y="52" />
      <point x="55" y="175" />
      <point x="55" y="267" type="qcurve" />
      <point x="55" y="359" />
      <point x="110" y="483" />
      <point x="210" y="546" />
      <point x="276" y="546" type="qcurve" />
      <point x="318" y="546" />
      <point x="380" y="525" />
      <point x="426" y="489" />
      <point x="442" y="467" type="qcurve" />
      <point x="448" y="467" type="line" />
      <point x="447" y="473" />
      <point x="445" y="494" />
      <point x="443" y="517" />
      <point x="442" y="539" />
      <point x="442" y="546" type="qcurve" />
      <point x="442" y="686" type="line" />
      <point x="109" y="686" type="line" />
      <point x="109" y="760" type="line" />
      <point x="530" y="760" type="line" />
      <point x="530" y="0" type="line" />
      <point x="459" y="0" type="line" />
      <point x="446" y="72" type="line" />
      <point x="442" y="72" type="line" />
      <point x="426" y="49" />
      <point x="380" y="12" />
      <point x="317" y="-10" />
    </contour>
    <contour>
      <point x="289" y="63" type="qcurve" />
      <point x="374" y="63" />
      <point x="443" y="156" />
      <point x="443" y="250" type="qcurve" />
      <point x="443" y="266" type="line" />
      <point x="443" y="366" />
      <point x="377" y="473" />
      <point x="288" y="473" type="qcurve" />
      <point x="217" y="473" />
      <point x="146" y="360" />
      <point x="146" y="265" type="qcurve" />
      <point x="146" y="169" />
      <point x="217" y="63" />
    </contour>
  </outline>
</glyph>
<glyph name="uni018D" format="2">
  <unicode hex="018D" />
  <advance width="604" />
  <outline>
    <contour>
      <point x="313" y="546" type="qcurve" />
      <point x="385" y="546" />
      <point x="496" y="488" />
      <point x="559" y="383" />
      <point x="559" y="311" type="qcurve" />
      <point x="559" y="247" />
      <point x="516" y="152" />
      <point x="436" y="86" />
      <point x="378" y="63" type="qcurve" />
      <point x="402" y="49" />
      <point x="445" y="12" />
      <point x="473" y="-40" />
      <point x="473" y="-79" type="qcurve" />
      <point x="473" y="-114" />
      <point x="433" y="-184" />
      <point x="348" y="-229" />
      <point x="279" y="-229" type="qcurve" />
      <point x="230" y="-229" />
      <point x="155" y="-207" />
      <point x="105" y="-177" />
      <point x="92" y="-167" type="qcurve" />
      <point x="130" y="-98" type="line" />
      <point x="162" y="-122" />
      <point x="236" y="-157" />
      <point x="280" y="-157" type="qcurve" />
      <point x="322" y="-157" />
      <point x="369" y="-133" />
      <point x="387" y="-98" />
      <point x="387" y="-82" type="qcurve" />
      <point x="387" y="-64" />
      <point x="371" y="-31" />
      <point x="322" y="8" />
      <point x="273" y="34" type="qcurve" />
      <point x="185" y="81" />
      <point x="98" y="172" />
      <point x="70" y="259" />
      <point x="70" y="301" type="qcurve" />
      <point x="70" y="386" />
      <point x="138" y="494" />
      <point x="249" y="546" />
    </contour>
    <contour>
      <point x="311" y="474" type="qcurve" />
      <point x="262" y="474" />
      <point x="192" y="430" />
      <point x="156" y="353" />
      <point x="156" y="303" type="qcurve" />
      <point x="156" y="254" />
      <point x="193" y="178" />
      <point x="259" y="121" />
      <point x="304" y="99" type="qcurve" />
      <point x="342" y="112" />
      <point x="403" y="148" />
      <point x="446" y="197" />
      <point x="469" y="262" />
      <point x="469" y="303" type="qcurve" />
      <point x="469" y="355" />
      <point x="430" y="431" />
      <point x="359" y="474" />
    </contour>
  </outline>
</glyph>
<glyph name="uni018E" format="2">
  <unicode hex="018E" />
  <advance width="556" />
  <outline>
    <contour>
      <point x="60" y="0" type="line" />
      <point x="60" y="79" type="line" />
      <point x="369" y="79" type="line" />
      <point x="369" y="334" type="line" />
      <point x="78" y="334" type="line" />
      <point x="78" y="412" type="line" />
      <point x="369" y="412" type="line" />
      <point x="369" y="635" type="line" />
      <point x="60" y="635" type="line" />
      <point x="60" y="714" type="line" />
      <point x="459" y="714" type="line" />
      <point x="459" y="0" type="line" />
    </contour>
  </outline>
</glyph>
<glyph name="uni0190" format="2">
  <unicode hex="0190" />
  <advance width="588" />
  <outline>
    <contour>
      <point x="314" y="724" type="qcurve" />
      <point x="388" y="724" />
      <point x="507" y="681" />
      <point x="547" y="650" type="qcurve" />
      <point x="504" y="589" type="line" />
      <point x="464" y="616" />
      <point x="381" y="650" />
      <point x="316" y="650" type="qcurve" />
      <point x="256" y="650" />
      <point x="180" y="592" />
      <point x="180" y="538" type="qcurve" />
      <point x="180" y="498" />
      <point x="223" y="439" />
      <point x="309" y="407" />
      <point x="373" y="407" type="qcurve" />
      <point x="470" y="407" type="line" />
      <point x="470" y="332" type="line" />
      <point x="368" y="332" type="line" />
      <point x="265" y="332" />
      <point x="148" y="270" />
      <point x="148" y="202" type="qcurve" />
      <point x="148" y="136" />
      <point x="245" y="64" />
      <point x="336" y="64" type="qcurve" />
      <point x="373" y="64" />
      <point x="448" y="77" />
      <point x="519" y="101" />
      <point x="550" y="116" type="qcurve" />
      <point x="550" y="34" type="line" />
      <point x="505" y="12" />
      <point x="397" y="-10" />
      <point x="331" y="-10" type="qcurve" />
      <point x="231" y="-10" />
      <point x="109" y="43" />
      <point x="54" y="136" />
      <point x="54" y="195" type="qcurve" />
      <point x="54" y="271" />
      <point x="148" y="361" />
      <point x="238" y="373" type="qcurve" />
      <point x="238" y="377" type="line" />
      <point x="192" y="385" />
      <point x="124" y="428" />
      <point x="87" y="498" />
      <point x="87" y="547" type="qcurve" />
      <point x="87" y="599" />
      <point x="139" y="678" />
      <point x="240" y="724" />
    </contour>
  </outline>
</glyph>
<glyph name="uni0191" format="2">
  <unicode hex="0191" />
  <advance width="589" />
  <outline>
    <contour>
      <point x="121" y="-242" type="qcurve" />
      <point x="54" y="-242" />
      <point x="-17" y="-169" />
      <point x="-17" y="-108" type="qcurve" />
      <point x="-17" y="-94" />
      <point x="-12" y="-65" />
      <point x="-7" y="-49" type="qcurve" />
      <point x="72" y="-73" type="line" />
      <point x="71" y="-80" />
      <point x="69" y="-94" />
      <point x="69" y="-102" type="qcurve" />
      <point x="69" y="-130" />
      <point x="97" y="-163" />
      <point x="121" y="-163" type="qcurve" />
      <point x="148" y="-163" />
      <point x="187" y="-116" />
      <point x="187" y="-56" type="qcurve" />
      <point x="187" y="714" type="line" />
      <point x="566" y="714" type="line" />
      <point x="566" y="635" type="line" />
      <point x="277" y="635" type="line" />
      <point x="277" y="413" type="line" />
      <point x="547" y="413" type="line" />
      <point x="547" y="334" type="line" />
      <point x="277" y="334" type="line" />
      <point x="277" y="-65" type="line" />
      <point x="277" y="-127" />
      <point x="236" y="-206" />
      <point x="166" y="-242" />
    </contour>
  </outline>
</glyph>
<glyph name="fhook" format="2">
  <unicode hex="0192" />
  <advance width="414" />
  <outline>
    <contour>
      <point x="130" y="-242" type="qcurve" />
      <point x="66" y="-242" />
      <point x="-13" y="-172" />
      <point x="-13" y="-113" type="qcurve" />
      <point x="-13" y="-103" />
      <point x="-11" y="-81" />
      <point x="-8" y="-70" type="qcurve" />
      <point x="67" y="-86" type="line" />
      <point x="66" y="-90" />
      <point x="65" y="-101" />
      <point x="65" y="-107" type="qcurve" />
      <point x="65" y="-138" />
      <point x="98" y="-169" />
      <point x="120" y="-169" type="qcurve" />
      <point x="148" y="-169" />
      <point x="179" y="-131" />
      <point x="179" y="-82" type="qcurve" />
      <point x="179" y="468" type="line" />
      <point x="85" y="468" type="line" />
      <point x="85" y="509" type="line" />
      <point x="179" y="539" type="line" />
      <point x="179" y="570" type="line" />
      <point x="179" y="639" />
      <point x="220" y="725" />
      <point x="298" y="765" />
      <point x="353" y="765" type="qcurve" />
      <point x="385" y="765" />
      <point x="438" y="754" />
      <point x="457" y="747" type="qcurve" />
      <point x="434" y="678" type="line" />
      <point x="418" y="683" />
      <point x="376" y="693" />
      <point x="354" y="693" type="qcurve" />
      <point x="310" y="693" />
      <point x="267" y="634" />
      <point x="267" y="571" type="qcurve" />
      <point x="267" y="536" type="line" />
      <point x="402" y="536" type="line" />
      <point x="402" y="468" type="line" />
      <point x="267" y="468" type="line" />
      <point x="267" y="-79" type="line" />
      <point x="267" y="-130" />
      <point x="237" y="-203" />
      <point x="177" y="-242" />
    </contour>
  </outline>
</glyph>
<glyph name="uni0193" format="2">
  <unicode hex="0193" />
  <advance width="728" />
  <outline>
    <contour>
      <point x="683" y="858" type="qcurve" />
      <point x="702" y="858" />
      <point x="733" y="850" />
      <point x="743" y="845" type="qcurve" />
      <point x="743" y="773" type="line" />
      <point x="736" y="776" />
      <point x="708" y="783" />
      <point x="691" y="783" type="qcurve" />
      <point x="669" y="783" />
      <point x="644" y="759" />
      <point x="644" y="735" type="qcurve" />
      <point x="644" y="682" type="line" />
      <point x="610" y="604" type="line" />
      <point x="572" y="621" />
      <point x="477" y="645" />
      <point x="426" y="645" type="qcurve" />
      <point x="341" y="645" />
      <point x="219" y="575" />
      <point x="155" y="446" />
      <point x="155" y="357" type="qcurve" />
      <point x="155" y="272" />
      <point x="210" y="141" />
      <point x="328" y="68" />
      <point x="424" y="68" type="qcurve" />
      <point x="471" y="68" />
      <point x="537" y="78" />
      <point x="564" y="85" type="qcurve" />
      <point x="564" y="297" type="line" />
      <point x="407" y="297" type="line" />
      <point x="407" y="377" type="line" />
      <point x="654" y="377" type="line" />
      <point x="654" y="27" type="line" />
      <point x="596" y="8" />
      <point x="478" y="-10" />
      <point x="403" y="-10" type="qcurve" />
      <point x="292" y="-10" />
      <point x="140" y="79" />
      <point x="61" y="244" />
      <point x="61" y="357" type="qcurve" />
      <point x="61" y="469" />
      <point x="149" y="633" />
      <point x="314" y="724" />
      <point x="431" y="724" type="qcurve" />
      <point x="468" y="724" />
      <point x="537" y="715" />
      <point x="568" y="707" type="qcurve" />
      <point x="568" y="724" type="line" />
      <point x="568" y="767" />
      <point x="591" y="827" />
      <point x="642" y="858" />
    </contour>
  </outline>
</glyph>
<glyph name="uni0194" format="2">
  <unicode hex="0194" />
  <advance width="570" />
  <outline>
    <contour>
      <point x="285" y="-240" type="qcurve" />
      <point x="231" y="-240" />
      <point x="169" y="-164" />
      <point x="169" y="-107" type="qcurve" />
      <point x="169" y="-77" />
      <point x="188" y="-5" />
      <point x="218" y="71" />
      <point x="236" y="107" type="qcurve" />
      <point x="0" y="714" type="line" />
      <point x="94" y="714" type="line" />
      <point x="235" y="341" type="line" />
      <point x="246" y="312" />
      <point x="265" y="258" />
      <point x="280" y="209" />
      <point x="285" y="185" type="qcurve" />
      <point x="290" y="209" />
      <point x="305" y="259" />
      <point x="324" y="314" />
      <point x="335" y="343" type="qcurve" />
      <point x="475" y="714" type="line" />
      <point x="570" y="714" type="line" />
      <point x="334" y="108" type="line" />
      <point x="356" y="65" />
      <point x="386" y="-15" />
      <point x="401" y="-82" />
      <point x="401" y="-107" type="qcurve" />
      <point x="401" y="-163" />
      <point x="339" y="-240" />
    </contour>
    <contour>
      <point x="285" y="-162" type="qcurve" />
      <point x="301" y="-162" />
      <point x="319" y="-135" />
      <point x="319" y="-105" type="qcurve" />
      <point x="319" y="-82" />
      <point x="303" y="-9" />
      <point x="285" y="25" type="qcurve" />
      <point x="266" y="-12" />
      <point x="251" y="-81" />
      <point x="251" y="-103" type="qcurve" />
      <point x="251" y="-134" />
      <point x="270" y="-162" />
    </contour>
  </outline>
</glyph>
<glyph name="uni0195" format="2">
  <unicode hex="0195" />
  <advance width="934" />
  <outline>
    <contour>
      <point x="639" y="-10" type="qcurve" />
      <point x="569" y="-10" />
      <point x="473" y="31" />
      <point x="425" y="118" />
      <point x="425" y="186" type="qcurve" />
      <point x="425" y="343" type="line" />
      <point x="425" y="408" />
      <point x="372" y="472" />
      <point x="316" y="472" type="qcurve" />
      <point x="262" y="472" />
      <point x="199" y="427" />
      <point x="173" y="340" />
      <point x="173" y="277" type="qcurve" />
      <point x="173" y="0" type="line" />
      <point x="85" y="0" type="line" />
      <point x="85" y="760" type="line" />
      <point x="173" y="760" type="line" />
      <point x="173" y="537" type="line" />
      <point x="173" y="518" />
      <point x="170" y="478" />
      <point x="168" y="462" type="qcurve" />
      <point x="174" y="462" type="line" />
      <point x="190" y="490" />
      <point x="239" y="526" />
      <point x="298" y="545" />
      <point x="330" y="545" type="qcurve" />
      <point x="391" y="545" />
      <point x="472" y="504" />
      <point x="513" y="418" />
      <point x="513" y="349" type="qcurve" />
      <point x="513" y="192" type="line" />
      <point x="513" y="128" />
      <point x="575" y="63" />
      <point x="639" y="63" type="qcurve" />
      <point x="704" y="63" />
      <point x="765" y="133" />
      <point x="765" y="212" type="qcurve" />
      <point x="765" y="536" type="line" />
      <point x="853" y="536" type="line" />
      <point x="853" y="209" type="line" />
      <point x="853" y="89" />
      <point x="746" y="-10" />
    </contour>
  </outline>
</glyph>
<glyph name="uni0196" format="2">
  <unicode hex="0196" />
  <advance width="348" />
  <outline>
    <contour>
      <point x="243" y="-10" type="qcurve" />
      <point x="199" y="-10" />
      <point x="130" y="19" />
      <point x="90" y="92" />
      <point x="90" y="157" type="qcurve" />
      <point x="90" y="714" type="line" />
      <point x="179" y="714" type="line" />
      <point x="179" y="165" type="line" />
      <point x="179" y="117" />
      <point x="216" y="69" />
      <point x="256" y="69" type="qcurve" />
      <point x="278" y="69" />
      <point x="325" y="76" />
      <point x="338" y="80" type="qcurve" />
      <point x="338" y="6" type="line" />
      <point x="324" y="-1" />
      <point x="269" y="-10" />
    </contour>
  </outline>
</glyph>
<glyph name="uni0197" format="2">
  <unicode hex="0197" />
  <advance width="339" />
  <outline>
    <contour>
      <point x="298" y="714" type="line" />
      <point x="298" y="662" type="line" />
      <point x="214" y="642" type="line" />
      <point x="214" y="405" type="line" />
      <point x="304" y="405" type="line" />
      <point x="304" y="327" type="line" />
      <point x="214" y="327" type="line" />
      <point x="214" y="71" type="line" />
      <point x="298" y="52" type="line" />
      <point x="298" y="0" type="line" />
      <point x="40" y="0" type="line" />
      <point x="40" y="52" type="line" />
      <point x="124" y="71" type="line" />
      <point x="124" y="327" type="line" />
      <point x="34" y="327" type="line" />
      <point x="34" y="405" type="line" />
      <point x="124" y="405" type="line" />
      <point x="124" y="642" type="line" />
      <point x="40" y="662" type="line" />
      <point x="40" y="714" type="line" />
    </contour>
  </outline>
</glyph>
<glyph name="uni0198" format="2">
  <unicode hex="0198" />
  <advance width="619" />
  <outline>
    <contour>
      <point x="553" y="720" type="qcurve" />
      <point x="570" y="720" />
      <point x="594" y="716" />
      <point x="603" y="712" type="qcurve" />
      <point x="603" y="642" type="line" />
      <point x="596" y="644" />
      <point x="568" y="645" />
      <point x="559" y="645" type="qcurve" />
      <point x="546" y="645" />
      <point x="517" y="630" />
      <point x="491" y="599" type="qcurve" />
      <point x="327" y="405" type="line" />
      <point x="619" y="0" type="line" />
      <point x="513" y="0" type="line" />
      <point x="266" y="342" type="line" />
      <point x="187" y="265" type="line" />
      <point x="187" y="0" type="line" />
      <point x="97" y="0" type="line" />
      <point x="97" y="714" type="line" />
      <point x="187" y="714" type="line" />
      <point x="187" y="354" type="line" />
      <point x="213" y="387" />
      <point x="281" y="465" />
      <point x="310" y="501" type="qcurve" />
      <point x="432" y="651" type="line" />
      <point x="457" y="682" />
      <point x="495" y="711" />
      <point x="531" y="720" />
    </contour>
  </outline>
</glyph>
<glyph name="uni0199" format="2">
  <unicode hex="0199" />
  <advance width="534" />
  <outline>
    <contour>
      <point x="206" y="765" type="qcurve" />
      <point x="225" y="765" />
      <point x="261" y="757" />
      <point x="271" y="752" type="qcurve" />
      <point x="271" y="679" type="line" />
      <point x="264" y="682" />
      <point x="236" y="689" />
      <point x="219" y="689" type="qcurve" />
      <point x="197" y="689" />
      <point x="172" y="663" />
      <point x="172" y="631" type="qcurve" />
      <point x="172" y="363" type="line" />
      <point x="172" y="347" />
      <point x="170" y="295" />
      <point x="168" y="276" type="qcurve" />
      <point x="172" y="276" type="line" />
      <point x="178" y="285" />
      <point x="202" y="314" />
      <point x="227" y="345" />
      <point x="236" y="355" type="qcurve" />
      <point x="407" y="536" type="line" />
      <point x="510" y="536" type="line" />
      <point x="293" y="307" type="line" />
      <point x="525" y="0" type="line" />
      <point x="419" y="0" type="line" />
      <point x="233" y="250" type="line" />
      <point x="172" y="197" type="line" />
      <point x="172" y="0" type="line" />
      <point x="85" y="0" type="line" />
      <point x="85" y="625" type="line" />
      <point x="85" y="671" />
      <point x="111" y="733" />
      <point x="165" y="765" />
    </contour>
  </outline>
</glyph>
<glyph name="uni019A" format="2">
  <unicode hex="019A" />
  <advance width="258" />
  <outline>
    <contour>
      <point x="85" y="0" type="line" />
      <point x="85" y="354" type="line" />
      <point x="15" y="354" type="line" />
      <point x="15" y="420" type="line" />
      <point x="85" y="420" type="line" />
      <point x="85" y="760" type="line" />
      <point x="173" y="760" type="line" />
      <point x="173" y="420" type="line" />
      <point x="243" y="420" type="line" />
      <point x="243" y="354" type="line" />
      <point x="173" y="354" type="line" />
      <point x="173" y="0" type="line" />
    </contour>
  </outline>
</glyph>
<glyph name="uni019B" format="2">
  <unicode hex="019B" />
  <advance width="542" />
  <outline>
    <contour>
      <point x="-6" y="0" type="line" />
      <point x="225" y="526" type="line" />
      <point x="202" y="590" type="line" />
      <point x="96" y="558" type="line" />
      <point x="77" y="621" type="line" />
      <point x="176" y="651" type="line" />
      <point x="162" y="675" />
      <point x="128" y="693" />
      <point x="101" y="693" type="qcurve" />
      <point x="83" y="693" />
      <point x="56" y="689" />
      <point x="45" y="687" type="qcurve" />
      <point x="45" y="758" type="line" />
      <point x="54" y="760" />
      <point x="76" y="764" />
      <point x="99" y="766" />
      <point x="111" y="766" type="qcurve" />
      <point x="149" y="766" />
      <point x="202" y="746" />
      <point x="241" y="707" />
      <point x="257" y="676" type="qcurve" />
      <point x="366" y="709" type="line" />
      <point x="385" y="646" type="line" />
      <point x="283" y="614" type="line" />
      <point x="462" y="116" type="line" />
      <point x="472" y="88" />
      <point x="495" y="62" />
      <point x="512" y="62" type="qcurve" />
      <point x="520" y="62" />
      <point x="537" y="66" />
      <point x="542" y="67" type="qcurve" />
      <point x="542" y="2" type="line" />
      <point x="531" y="-3" />
      <point x="502" y="-10" />
      <point x="485" y="-10" type="qcurve" />
      <point x="461" y="-10" />
      <point x="425" y="6" />
      <point x="400" y="42" />
      <point x="389" y="71" type="qcurve" />
      <point x="316" y="276" type="line" />
      <point x="310" y="294" />
      <point x="295" y="337" />
      <point x="280" y="381" />
      <point x="269" y="420" />
      <point x="266" y="435" type="qcurve" />
      <point x="262" y="435" type="line" />
      <point x="253" y="400" />
      <point x="224" y="320" />
      <point x="207" y="281" type="qcurve" />
      <point x="85" y="0" type="line" />
    </contour>
  </outline>
</glyph>
<glyph name="uni019C" format="2">
  <unicode hex="019C" />
  <advance width="1030" />
  <outline>
    <contour>
      <point x="287" y="-10" type="qcurve" />
      <point x="220" y="-10" />
      <point x="133" y="35" />
      <point x="90" y="132" />
      <point x="90" y="208" type="qcurve" />
      <point x="90" y="714" type="line" />
      <point x="180" y="714" type="line" />
      <point x="180" y="208" type="line" />
      <point x="180" y="138" />
      <point x="238" y="68" />
      <point x="301" y="68" type="qcurve" />
      <point x="361" y="68" />
      <point x="433" y="113" />
      <point x="466" y="199" />
      <point x="466" y="262" type="qcurve" />
      <point x="466" y="714" type="line" />
      <point x="556" y="714" type="line" />
      <point x="556" y="208" type="line" />
      <point x="556" y="138" />
      <point x="615" y="68" />
      <point x="679" y="68" type="qcurve" />
      <point x="741" y="68" />
      <point x="812" y="117" />
      <point x="842" y="213" />
      <point x="842" y="282" type="qcurve" />
      <point x="842" y="714" type="line" />
      <point x="932" y="714" type="line" />
      <point x="932" y="0" type="line" />
      <point x="861" y="0" type="line" />
      <point x="846" y="82" type="line" />
      <point x="841" y="82" type="line" />
      <point x="823" y="51" />
      <point x="765" y="10" />
      <point x="696" y="-10" />
      <point x="660" y="-10" type="qcurve" />
      <point x="593" y="-10" />
      <point x="507" y="39" />
      <point x="485" y="90" type="qcurve" />
      <point x="480" y="90" type="line" />
      <point x="450" y="39" />
      <point x="345" y="-10" />
    </contour>
  </outline>
</glyph>
<glyph name="uni019D" format="2">
  <unicode hex="019D" />
  <advance width="760" />
  <outline>
    <contour>
      <point x="45" y="-240" type="qcurve" />
      <point x="27" y="-240" />
      <point x="0" y="-233" />
      <point x="-11" y="-227" type="qcurve" />
      <point x="-11" y="-151" type="line" />
      <point x="-1" y="-155" />
      <point x="21" y="-161" />
      <point x="34" y="-161" type="qcurve" />
      <point x="65" y="-161" />
      <point x="97" y="-126" />
      <point x="97" y="-79" type="qcurve" />
      <point x="97" y="714" type="line" />
      <point x="201" y="714" type="line" />
      <point x="582" y="123" type="line" />
      <point x="586" y="123" type="line" />
      <point x="585" y="135" />
      <point x="583" y="178" />
      <point x="581" y="231" />
      <point x="579" y="287" />
      <point x="579" y="311" type="qcurve" />
      <point x="579" y="714" type="line" />
      <point x="663" y="714" type="line" />
      <point x="663" y="0" type="line" />
      <point x="558" y="0" type="line" />
      <point x="176" y="593" type="line" />
      <point x="172" y="593" type="line" />
      <point x="174" y="570" />
      <point x="177" y="507" />
      <point x="180" y="436" />
      <point x="180" y="399" type="qcurve" />
      <point x="180" y="-83" type="line" />
      <point x="180" y="-138" />
      <point x="150" y="-207" />
      <point x="90" y="-240" />
    </contour>
  </outline>
</glyph>
<glyph name="Ohorn" format="2">
  <unicode hex="01A0" />
  <advance width="784" />
  <outline>
    <contour>
      <point x="719" y="358" type="qcurve" />
      <point x="719" y="275" />
      <point x="677" y="140" />
      <point x="594" y="42" />
      <point x="472" y="-10" />
      <point x="391" y="-10" type="qcurve" />
      <point x="307" y="-10" />
      <point x="183" y="43" />
      <point x="101" y="140" />
      <point x="61" y="276" />
      <point x="61" y="359" type="qcurve" />
      <point x="61" y="469" />
      <point x="133" y="633" />
      <point x="280" y="725" />
      <point x="392" y="725" type="qcurve" />
      <point x="474" y="725" />
      <point x="598" y="670" />
      <point x="639" y="621" type="qcurve" />
      <point x="667" y="629" />
      <point x="694" y="668" />
      <point x="703" y="726" />
      <point x="703" y="760" type="qcurve" />
      <point x="798" y="760" type="line" />
      <point x="805" y="749" type="line" />
      <point x="794" y="690" />
      <point x="737" y="590" />
      <point x="674" y="567" type="qcurve" />
      <point x="697" y="524" />
      <point x="719" y="419" />
    </contour>
    <contour>
      <point x="156" y="358" type="qcurve" />
      <point x="156" y="268" />
      <point x="206" y="138" />
      <point x="310" y="68" />
      <point x="391" y="68" type="qcurve" />
      <point x="473" y="68" />
      <point x="575" y="138" />
      <point x="624" y="268" />
      <point x="624" y="358" type="qcurve" />
      <point x="624" y="492" />
      <point x="514" y="646" />
      <point x="392" y="646" type="qcurve" />
      <point x="310" y="646" />
      <point x="206" y="577" />
      <point x="156" y="448" />
    </contour>
  </outline>
</glyph>
<glyph name="ohorn" format="2">
  <unicode hex="01A1" />
  <advance width="616" />
  <outline>
    <contour>
      <point x="551" y="269" type="qcurve" />
      <point x="551" y="180" />
      <point x="490" y="55" />
      <point x="378" y="-10" />
      <point x="301" y="-10" type="qcurve" />
      <point x="230" y="-10" />
      <point x="119" y="55" />
      <point x="55" y="180" />
      <point x="55" y="269" type="qcurve" />
      <point x="55" y="402" />
      <point x="189" y="546" />
      <point x="304" y="546" type="qcurve" />
      <point x="357" y="546" />
      <point x="446" y="510" />
      <point x="478" y="477" type="qcurve" />
      <point x="508" y="486" />
      <point x="537" y="527" />
      <point x="545" y="585" />
      <point x="545" y="618" type="qcurve" />
      <point x="639" y="618" type="line" />
      <point x="646" y="607" type="line" />
      <point x="637" y="561" />
      <point x="606" y="489" />
      <point x="556" y="438" />
      <point x="517" y="424" type="qcurve" />
      <point x="533" y="393" />
      <point x="551" y="315" />
    </contour>
    <contour>
      <point x="146" y="269" type="qcurve" />
      <point x="146" y="202" />
      <point x="179" y="110" />
      <point x="248" y="63" />
      <point x="303" y="63" type="qcurve" />
      <point x="358" y="63" />
      <point x="427" y="110" />
      <point x="460" y="202" />
      <point x="460" y="269" type="qcurve" />
      <point x="460" y="336" />
      <point x="427" y="426" />
      <point x="357" y="472" />
      <point x="302" y="472" type="qcurve" />
      <point x="220" y="472" />
      <point x="146" y="370" />
    </contour>
  </outline>
</glyph>
<glyph name="uni01A2" format="2">
  <unicode hex="01A2" />
  <advance width="1075" />
  <outline>
    <contour>
      <point x="688" y="358" type="qcurve" />
      <point x="688" y="275" />
      <point x="648" y="140" />
      <point x="569" y="42" />
      <point x="452" y="-10" />
      <point x="375" y="-10" type="qcurve" />
      <point x="296" y="-10" />
      <point x="177" y="43" />
      <point x="100" y="140" />
      <point x="61" y="276" />
      <point x="61" y="359" type="qcurve" />
      <point x="61" y="469" />
      <point x="130" y="633" />
      <point x="270" y="725" />
      <point x="376" y="725" type="qcurve" />
      <point x="449" y="725" />
      <point x="561" y="678" />
      <point x="600" y="634" type="qcurve" />
      <point x="631" y="681" />
      <point x="733" y="725" />
      <point x="788" y="725" type="qcurve" />
      <point x="855" y="725" />
      <point x="942" y="680" />
      <point x="985" y="584" />
      <point x="985" y="507" type="qcurve" />
      <point x="985" y="0" type="line" />
      <point x="895" y="0" type="line" />
      <point x="895" y="507" type="line" />
      <point x="895" y="577" />
      <point x="837" y="647" />
      <point x="774" y="647" type="qcurve" />
      <point x="722" y="647" />
      <point x="654" y="617" />
      <point x="635" y="586" type="qcurve" />
      <point x="661" y="540" />
      <point x="688" y="426" />
    </contour>
    <contour>
      <point x="156" y="358" type="qcurve" />
      <point x="156" y="268" />
      <point x="203" y="138" />
      <point x="300" y="68" />
      <point x="375" y="68" type="qcurve" />
      <point x="451" y="68" />
      <point x="547" y="138" />
      <point x="593" y="268" />
      <point x="593" y="358" type="qcurve" />
      <point x="593" y="448" />
      <point x="547" y="577" />
      <point x="451" y="646" />
      <point x="376" y="646" type="qcurve" />
      <point x="301" y="646" />
      <point x="203" y="577" />
      <point x="156" y="448" />
    </contour>
  </outline>
</glyph>
<glyph name="uni01A3" format="2">
  <unicode hex="01A3" />
  <advance width="845" />
  <outline>
    <contour>
      <point x="526" y="269" type="qcurve" />
      <point x="526" y="202" />
      <point x="493" y="99" />
      <point x="431" y="27" />
      <point x="343" y="-10" />
      <point x="289" y="-10" type="qcurve" />
      <point x="238" y="-10" />
      <point x="153" y="27" />
      <point x="90" y="99" />
      <point x="55" y="202" />
      <point x="55" y="269" type="qcurve" />
      <point x="55" y="358" />
      <point x="112" y="481" />
      <point x="218" y="546" />
      <point x="291" y="546" type="qcurve" />
      <point x="343" y="546" />
      <point x="429" y="509" />
      <point x="460" y="474" type="qcurve" />
      <point x="486" y="511" />
      <point x="562" y="546" />
      <point x="604" y="546" type="qcurve" />
      <point x="658" y="546" />
      <point x="729" y="505" />
      <point x="764" y="418" />
      <point x="764" y="349" type="qcurve" />
      <point x="764" y="-240" type="line" />
      <point x="677" y="-240" type="line" />
      <point x="677" y="345" type="line" />
      <point x="677" y="408" />
      <point x="632" y="472" />
      <point x="585" y="472" type="qcurve" />
      <point x="553" y="472" />
      <point x="506" y="450" />
      <point x="491" y="428" type="qcurve" />
      <point x="508" y="397" />
      <point x="526" y="316" />
    </contour>
    <contour>
      <point x="146" y="269" type="qcurve" />
      <point x="146" y="206" />
      <point x="176" y="113" />
      <point x="240" y="63" />
      <point x="290" y="63" type="qcurve" />
      <point x="340" y="63" />
      <point x="404" y="113" />
      <point x="435" y="206" />
      <point x="435" y="269" type="qcurve" />
      <point x="435" y="333" />
      <point x="404" y="423" />
      <point x="340" y="472" />
      <point x="290" y="472" type="qcurve" />
      <point x="214" y="472" />
      <point x="146" y="364" />
    </contour>
  </outline>
</glyph>
<glyph name="uni01A4" format="2">
  <unicode hex="01A4" />
  <advance width="685" />
  <outline>
    <contour>
      <point x="177" y="0" type="line" />
      <point x="177" y="637" type="line" />
      <point x="151" y="637" type="line" />
      <point x="120" y="637" />
      <point x="90" y="610" />
      <point x="90" y="587" type="qcurve" />
      <point x="90" y="571" />
      <point x="97" y="540" />
      <point x="100" y="533" type="qcurve" />
      <point x="21" y="533" type="line" />
      <point x="17" y="544" />
      <point x="10" y="576" />
      <point x="10" y="588" type="qcurve" />
      <point x="10" y="631" />
      <point x="41" y="687" />
      <point x="103" y="714" />
      <point x="151" y="714" type="qcurve" />
      <point x="366" y="714" type="line" />
      <point x="506" y="714" />
      <point x="634" y="604" />
      <point x="634" y="504" type="qcurve" />
      <point x="634" y="460" />
      <point x="605" y="379" />
      <point x="539" y="315" />
      <point x="429" y="278" />
      <point x="349" y="278" type="qcurve" />
      <point x="267" y="278" type="line" />
      <point x="267" y="0" type="line" />
    </contour>
    <contour>
      <point x="339" y="355" type="line" />
      <point x="407" y="355" />
      <point x="497" y="384" />
      <point x="541" y="448" />
      <point x="541" y="500" type="qcurve" />
      <point x="541" y="569" />
      <point x="453" y="637" />
      <point x="358" y="637" type="qcurve" />
      <point x="267" y="637" type="line" />
      <point x="267" y="355" type="line" />
    </contour>
  </outline>
</glyph>
<glyph name="uni01A5" format="2">
  <unicode hex="01A5" />
  <advance width="615" />
  <outline>
    <contour>
      <point x="207" y="765" type="qcurve" />
      <point x="226" y="765" />
      <point x="262" y="757" />
      <point x="272" y="752" type="qcurve" />
      <point x="272" y="679" type="line" />
      <point x="265" y="682" />
      <point x="237" y="689" />
      <point x="220" y="689" type="qcurve" />
      <point x="198" y="689" />
      <point x="173" y="663" />
      <point x="173" y="631" type="qcurve" />
      <point x="173" y="551" type="line" />
      <point x="173" y="532" />
      <point x="169" y="480" />
      <point x="167" y="463" type="qcurve" />
      <point x="173" y="463" type="line" />
      <point x="189" y="486" />
      <point x="234" y="524" />
      <point x="297" y="546" />
      <point x="340" y="546" type="qcurve" />
      <point x="406" y="546" />
      <point x="505" y="485" />
      <point x="560" y="362" />
      <point x="560" y="269" type="qcurve" />
      <point x="560" y="178" />
      <point x="505" y="53" />
      <point x="406" y="-10" />
      <point x="339" y="-10" type="qcurve" />
      <point x="298" y="-10" />
      <point x="234" y="12" />
      <point x="189" y="47" />
      <point x="173" y="68" type="qcurve" />
      <point x="167" y="68" type="line" />
      <point x="169" y="51" />
      <point x="173" y="-1" />
      <point x="173" y="-20" type="qcurve" />
      <point x="173" y="-240" type="line" />
      <point x="85" y="-240" type="line" />
      <point x="85" y="625" type="line" />
      <point x="85" y="671" />
      <point x="112" y="733" />
      <point x="166" y="765" />
    </contour>
    <contour>
      <point x="324" y="472" type="qcurve" />
      <point x="270" y="472" />
      <point x="204" y="431" />
      <point x="174" y="349" />
      <point x="173" y="286" type="qcurve" />
      <point x="173" y="269" type="line" />
      <point x="173" y="203" />
      <point x="201" y="111" />
      <point x="268" y="63" />
      <point x="326" y="63" type="qcurve" />
      <point x="375" y="63" />
      <point x="438" y="117" />
      <point x="469" y="210" />
      <point x="469" y="270" type="qcurve" />
      <point x="469" y="362" />
      <point x="398" y="472" />
    </contour>
  </outline>
</glyph>
<glyph name="uni01A6" format="2">
  <unicode hex="01A6" />
  <advance width="622" />
  <outline>
    <contour>
      <point x="502" y="-100" type="line" />
      <point x="329" y="195" type="line" />
      <point x="187" y="195" type="line" />
      <point x="187" y="0" type="line" />
      <point x="97" y="0" type="line" />
      <point x="97" y="714" type="line" />
      <point x="187" y="714" type="line" />
      <point x="187" y="614" type="line" />
      <point x="294" y="614" type="line" />
      <point x="383" y="614" />
      <point x="498" y="569" />
      <point x="554" y="479" />
      <point x="554" y="411" type="qcurve" />
      <point x="554" y="354" />
      <point x="512" y="278" />
      <point x="447" y="233" />
      <point x="411" y="220" type="qcurve" />
      <point x="607" y="-100" type="line" />
    </contour>
    <contour>
      <point x="294" y="271" type="line" />
      <point x="381" y="271" />
      <point x="461" y="340" />
      <point x="461" y="407" type="qcurve" />
      <point x="461" y="454" />
      <point x="424" y="510" />
      <point x="348" y="536" />
      <point x="289" y="536" type="qcurve" />
      <point x="187" y="536" type="line" />
      <point x="187" y="271" type="line" />
    </contour>
  </outline>
</glyph>
<glyph name="uni01A7" format="2">
  <unicode hex="01A7" />
  <advance width="549" />
  <outline>
    <contour>
      <point x="271" y="724" type="qcurve" />
      <point x="339" y="724" />
      <point x="441" y="680" />
      <point x="499" y="599" />
      <point x="499" y="542" type="qcurve" />
      <point x="499" y="500" />
      <point x="476" y="436" />
      <point x="430" y="386" />
      <point x="361" y="347" />
      <point x="315" y="330" type="qcurve" />
      <point x="251" y="307" />
      <point x="172" y="266" />
      <point x="137" y="218" />
      <point x="137" y="183" type="qcurve" />
      <point x="137" y="148" />
      <point x="173" y="96" />
      <point x="245" y="68" />
      <point x="298" y="68" type="qcurve" />
      <point x="355" y="68" />
      <point x="462" y="99" />
      <point x="498" y="115" type="qcurve" />
      <point x="498" y="29" type="line" />
      <point x="464" y="13" />
      <point x="362" y="-10" />
      <point x="302" y="-10" type="qcurve" />
      <point x="224" y="-10" />
      <point x="110" y="38" />
      <point x="47" y="127" />
      <point x="47" y="191" type="qcurve" />
      <point x="47" y="247" />
      <point x="97" y="321" />
      <point x="189" y="374" />
      <point x="252" y="397" type="qcurve" />
      <point x="310" y="419" />
      <point x="378" y="457" />
      <point x="408" y="505" />
      <point x="408" y="541" type="qcurve" />
      <point x="408" y="588" />
      <point x="340" y="645" />
      <point x="273" y="645" type="qcurve" />
      <point x="231" y="645" />
      <point x="153" y="623" />
      <point x="119" y="607" type="qcurve" />
      <point x="91" y="684" type="line" />
      <point x="129" y="702" />
      <point x="219" y="724" />
    </contour>
  </outline>
</glyph>
<glyph name="uni01A8" format="2">
  <unicode hex="01A8" />
  <advance width="479" />
  <outline>
    <contour>
      <point x="227" y="546" type="qcurve" />
      <point x="292" y="546" />
      <point x="382" y="513" />
      <point x="428" y="450" />
      <point x="428" y="404" type="qcurve" />
      <point x="428" y="360" />
      <point x="388" y="304" />
      <point x="314" y="264" />
      <point x="262" y="244" type="qcurve" />
      <point x="223" y="229" />
      <point x="171" y="204" />
      <point x="142" y="180" />
      <point x="130" y="155" />
      <point x="130" y="140" type="qcurve" />
      <point x="130" y="104" />
      <point x="190" y="61" />
      <point x="257" y="61" type="qcurve" />
      <point x="304" y="61" />
      <point x="396" y="88" />
      <point x="427" y="104" type="qcurve" />
      <point x="427" y="24" type="line" />
      <point x="396" y="8" />
      <point x="315" y="-10" />
      <point x="259" y="-10" type="qcurve" />
      <point x="153" y="-10" />
      <point x="45" y="70" />
      <point x="45" y="148" type="qcurve" />
      <point x="45" y="191" />
      <point x="83" y="248" />
      <point x="155" y="288" />
      <point x="206" y="307" type="qcurve" />
      <point x="258" y="327" />
      <point x="318" y="356" />
      <point x="344" y="387" />
      <point x="344" y="409" type="qcurve" />
      <point x="344" y="439" />
      <point x="287" y="474" />
      <point x="233" y="474" type="qcurve" />
      <point x="202" y="474" />
      <point x="135" y="454" />
      <point x="101" y="440" type="qcurve" />
      <point x="71" y="510" type="line" />
      <point x="109" y="527" />
      <point x="186" y="546" />
    </contour>
  </outline>
</glyph>
<glyph name="uni01AA" format="2">
  <unicode hex="01AA" />
  <advance width="357" />
  <outline>
    <contour>
      <point x="117" y="765" type="qcurve" />
      <point x="158" y="765" />
      <point x="216" y="734" />
      <point x="247" y="672" />
      <point x="247" y="624" type="qcurve" />
      <point x="247" y="-72" type="line" />
      <point x="247" y="-120" />
      <point x="284" y="-168" />
      <point x="324" y="-168" type="qcurve" />
      <point x="346" y="-168" />
      <point x="393" y="-161" />
      <point x="406" y="-157" type="qcurve" />
      <point x="406" y="-224" type="line" />
      <point x="392" y="-231" />
      <point x="338" y="-240" />
      <point x="312" y="-240" type="qcurve" />
      <point x="268" y="-240" />
      <point x="199" y="-211" />
      <point x="160" y="-138" />
      <point x="160" y="-73" type="qcurve" />
      <point x="160" y="542" type="line" />
      <point x="115" y="542" type="line" />
      <point x="50" y="542" />
      <point x="-8" y="605" />
      <point x="-8" y="654" type="qcurve" />
      <point x="-8" y="682" />
      <point x="15" y="733" />
      <point x="70" y="765" />
    </contour>
    <contour>
      <point x="111" y="693" type="qcurve" />
      <point x="89" y="693" />
      <point x="72" y="669" />
      <point x="72" y="654" type="qcurve" />
      <point x="72" y="632" />
      <point x="100" y="614" />
      <point x="121" y="614" type="qcurve" />
      <point x="160" y="614" type="line" />
      <point x="160" y="627" type="line" />
      <point x="160" y="656" />
      <point x="140" y="693" />
    </contour>
  </outline>
</glyph>
<glyph name="uni01AB" format="2">
  <unicode hex="01AB" />
  <advance width="361" />
  <outline>
    <contour>
      <point x="222" y="-240" type="qcurve" />
      <point x="203" y="-240" />
      <point x="172" y="-232" />
      <point x="162" y="-228" type="qcurve" />
      <point x="162" y="-155" type="line" />
      <point x="170" y="-158" />
      <point x="196" y="-164" />
      <point x="212" y="-164" type="qcurve" />
      <point x="235" y="-164" />
      <point x="260" y="-139" />
      <point x="260" y="-112" type="qcurve" />
      <point x="260" y="-10" type="line" />
      <point x="256" y="-10" />
      <point x="244" y="-10" />
      <point x="239" y="-10" type="qcurve" />
      <point x="211" y="-10" />
      <point x="159" y="6" />
      <point x="117" y="43" />
      <point x="92" y="107" />
      <point x="92" y="156" type="qcurve" />
      <point x="92" y="468" type="line" />
      <point x="16" y="468" type="line" />
      <point x="16" y="510" type="line" />
      <point x="93" y="545" type="line" />
      <point x="128" y="659" type="line" />
      <point x="180" y="659" type="line" />
      <point x="180" y="536" type="line" />
      <point x="335" y="536" type="line" />
      <point x="335" y="468" type="line" />
      <point x="180" y="468" type="line" />
      <point x="180" y="158" type="line" />
      <point x="180" y="109" />
      <point x="224" y="62" />
      <point x="264" y="62" type="qcurve" />
      <point x="284" y="62" />
      <point x="326" y="69" />
      <point x="339" y="73" type="qcurve" />
      <point x="339" y="-107" type="line" />
      <point x="339" y="-171" />
      <point x="282" y="-240" />
    </contour>
  </outline>
</glyph>
<glyph name="uni01AC" format="2">
  <unicode hex="01AC" />
  <advance width="576" />
  <outline>
    <contour>
      <point x="253" y="0" type="line" />
      <point x="253" y="635" type="line" />
      <point x="151" y="635" type="line" />
      <point x="120" y="635" />
      <point x="90" y="610" />
      <point x="90" y="587" type="qcurve" />
      <point x="90" y="571" />
      <point x="97" y="540" />
      <point x="100" y="533" type="qcurve" />
      <point x="21" y="533" type="line" />
      <point x="17" y="544" />
      <point x="10" y="576" />
      <point x="10" y="588" type="qcurve" />
      <point x="10" y="631" />
      <point x="41" y="687" />
      <point x="103" y="714" />
      <point x="151" y="714" type="qcurve" />
      <point x="565" y="714" type="line" />
      <point x="565" y="635" type="line" />
      <point x="343" y="635" type="line" />
      <point x="343" y="0" type="line" />
    </contour>
  </outline>
</glyph>
<glyph name="uni01AD" format="2">
  <unicode hex="01AD" />
  <advance width="361" />
  <outline>
    <contour>
      <point x="240" y="765" type="qcurve" />
      <point x="263" y="765" />
      <point x="304" y="757" />
      <point x="317" y="752" type="qcurve" />
      <point x="317" y="679" type="line" />
      <point x="308" y="682" />
      <point x="263" y="689" />
      <point x="240" y="689" type="qcurve" />
      <point x="209" y="689" />
      <point x="180" y="655" />
      <point x="180" y="621" type="qcurve" />
      <point x="180" y="536" type="line" />
      <point x="335" y="536" type="line" />
      <point x="335" y="468" type="line" />
      <point x="180" y="468" type="line" />
      <point x="180" y="158" type="line" />
      <point x="180" y="109" />
      <point x="227" y="62" />
      <point x="264" y="62" type="qcurve" />
      <point x="284" y="62" />
      <point x="326" y="69" />
      <point x="339" y="73" type="qcurve" />
      <point x="339" y="6" type="line" />
      <point x="325" y="-1" />
      <point x="273" y="-10" />
      <point x="249" y="-10" type="qcurve" />
      <point x="207" y="-10" />
      <point x="136" y="19" />
      <point x="92" y="91" />
      <point x="92" y="156" type="qcurve" />
      <point x="92" y="468" type="line" />
      <point x="16" y="468" type="line" />
      <point x="16" y="510" type="line" />
      <point x="93" y="545" type="line" />
      <point x="93" y="611" type="line" />
      <point x="93" y="661" />
      <point x="125" y="729" />
      <point x="191" y="765" />
    </contour>
  </outline>
</glyph>
<glyph name="uni01AE" format="2">
  <unicode hex="01AE" />
  <advance width="556" />
  <outline>
    <contour>
      <point x="368" y="-240" type="qcurve" />
      <point x="301" y="-240" />
      <point x="233" y="-165" />
      <point x="233" y="-83" type="qcurve" />
      <point x="233" y="635" type="line" />
      <point x="10" y="635" type="line" />
      <point x="10" y="714" type="line" />
      <point x="545" y="714" type="line" />
      <point x="545" y="635" type="line" />
      <point x="323" y="635" type="line" />
      <point x="323" y="-79" type="line" />
      <point x="323" y="-126" />
      <point x="355" y="-161" />
      <point x="386" y="-161" type="qcurve" />
      <point x="399" y="-161" />
      <point x="421" y="-155" />
      <point x="431" y="-151" type="qcurve" />
      <point x="431" y="-227" type="line" />
      <point x="421" y="-233" />
      <point x="386" y="-240" />
    </contour>
  </outline>
</glyph>
<glyph name="Uhorn" format="2">
  <unicode hex="01AF" />
  <advance width="780" />
  <outline>
    <contour>
      <point x="640" y="617" type="line" />
      <point x="673" y="622" />
      <point x="706" y="660" />
      <point x="718" y="721" />
      <point x="718" y="760" type="qcurve" />
      <point x="811" y="760" type="line" />
      <point x="818" y="749" type="line" />
      <point x="812" y="713" />
      <point x="788" y="650" />
      <point x="748" y="599" />
      <point x="686" y="563" />
      <point x="640" y="555" type="qcurve" />
      <point x="640" y="252" type="line" />
      <point x="640" y="178" />
      <point x="584" y="59" />
      <point x="465" y="-10" />
      <point x="369" y="-10" type="qcurve" />
      <point x="233" y="-10" />
      <point x="90" y="135" />
      <point x="90" y="254" type="qcurve" />
      <point x="90" y="714" type="line" />
      <point x="180" y="714" type="line" />
      <point x="180" y="250" type="line" />
      <point x="180" y="164" />
      <point x="275" y="68" />
      <point x="371" y="68" type="qcurve" />
      <point x="436" y="68" />
      <point x="515" y="115" />
      <point x="551" y="198" />
      <point x="551" y="251" type="qcurve" />
      <point x="551" y="714" type="line" />
      <point x="640" y="714" type="line" />
    </contour>
  </outline>
</glyph>
<glyph name="uhorn" format="2">
  <unicode hex="01B0" />
  <advance width="674" />
  <outline>
    <contour>
      <point x="708" y="608" type="line" />
      <point x="702" y="573" />
      <point x="679" y="507" />
      <point x="640" y="454" />
      <point x="578" y="419" />
      <point x="533" y="414" type="qcurve" />
      <point x="533" y="0" type="line" />
      <point x="461" y="0" type="line" />
      <point x="448" y="71" type="line" />
      <point x="444" y="71" type="line" />
      <point x="427" y="43" />
      <point x="374" y="7" />
      <point x="310" y="-10" />
      <point x="276" y="-10" type="qcurve" />
      <point x="211" y="-10" />
      <point x="123" y="31" />
      <point x="79" y="117" />
      <point x="79" y="185" type="qcurve" />
      <point x="79" y="535" type="line" />
      <point x="168" y="535" type="line" />
      <point x="168" y="191" type="line" />
      <point x="168" y="127" />
      <point x="226" y="63" />
      <point x="287" y="63" type="qcurve" />
      <point x="376" y="63" />
      <point x="445" y="163" />
      <point x="445" y="257" type="qcurve" />
      <point x="445" y="535" type="line" />
      <point x="533" y="535" type="line" />
      <point x="533" y="476" type="line" />
      <point x="565" y="482" />
      <point x="597" y="520" />
      <point x="608" y="581" />
      <point x="608" y="619" type="qcurve" />
      <point x="701" y="619" type="line" />
    </contour>
  </outline>
</glyph>
<glyph name="uni01B1" format="2">
  <unicode hex="01B1" />
  <advance width="782" />
  <outline>
    <contour>
      <point x="391" y="68" type="qcurve" />
      <point x="471" y="68" />
      <point x="574" y="127" />
      <point x="623" y="237" />
      <point x="623" y="313" type="qcurve" />
      <point x="623" y="380" />
      <point x="591" y="496" />
      <point x="518" y="598" />
      <point x="456" y="642" type="qcurve" />
      <point x="456" y="714" type="line" />
      <point x="744" y="714" type="line" />
      <point x="744" y="635" type="line" />
      <point x="566" y="635" type="line" />
      <point x="609" y="603" />
      <point x="677" y="507" />
      <point x="718" y="385" />
      <point x="718" y="310" type="qcurve" />
      <point x="718" y="212" />
      <point x="642" y="68" />
      <point x="496" y="-11" />
      <point x="391" y="-11" type="qcurve" />
      <point x="285" y="-11" />
      <point x="139" y="67" />
      <point x="63" y="211" />
      <point x="63" y="309" type="qcurve" />
      <point x="63" y="384" />
      <point x="103" y="507" />
      <point x="172" y="603" />
      <point x="214" y="635" type="qcurve" />
      <point x="37" y="635" type="line" />
      <point x="37" y="714" type="line" />
      <point x="325" y="714" type="line" />
      <point x="325" y="642" type="line" />
      <point x="263" y="598" />
      <point x="189" y="496" />
      <point x="157" y="379" />
      <point x="157" y="313" type="qcurve" />
      <point x="157" y="237" />
      <point x="207" y="127" />
      <point x="311" y="68" />
    </contour>
  </outline>
</glyph>
<glyph name="uni01B2" format="2">
  <unicode hex="01B2" />
  <advance width="731" />
  <outline>
    <contour>
      <point x="267" y="-10" type="qcurve" />
      <point x="194" y="-10" />
      <point x="116" y="53" />
      <point x="87" y="176" />
      <point x="87" y="264" type="qcurve" />
      <point x="87" y="714" type="line" />
      <point x="177" y="714" type="line" />
      <point x="177" y="271" type="line" />
      <point x="177" y="193" />
      <point x="193" y="104" />
      <point x="237" y="68" />
      <point x="279" y="68" type="qcurve" />
      <point x="323" y="68" />
      <point x="404" y="120" />
      <point x="473" y="214" />
      <point x="525" y="340" />
      <point x="553" y="490" />
      <point x="553" y="572" type="qcurve" />
      <point x="553" y="613" />
      <point x="515" y="646" />
      <point x="487" y="646" type="qcurve" />
      <point x="466" y="646" />
      <point x="431" y="635" />
      <point x="418" y="629" type="qcurve" />
      <point x="418" y="704" type="line" />
      <point x="432" y="712" />
      <point x="480" y="724" />
      <point x="511" y="724" type="qcurve" />
      <point x="575" y="724" />
      <point x="643" y="654" />
      <point x="643" y="592" type="qcurve" />
      <point x="643" y="496" />
      <point x="608" y="318" />
      <point x="542" y="167" />
      <point x="449" y="53" />
      <point x="334" y="-10" />
    </contour>
  </outline>
</glyph>
<glyph name="uni01B3" format="2">
  <unicode hex="01B3" />
  <advance width="576" />
  <outline>
    <contour>
      <point x="238" y="0" type="line" />
      <point x="238" y="273" type="line" />
      <point x="0" y="714" type="line" />
      <point x="98" y="714" type="line" />
      <point x="283" y="363" type="line" />
      <point x="411" y="650" type="line" />
      <point x="431" y="695" />
      <point x="479" y="725" />
      <point x="511" y="725" type="qcurve" />
      <point x="531" y="725" />
      <point x="561" y="718" />
      <point x="571" y="714" type="qcurve" />
      <point x="571" y="641" type="line" />
      <point x="563" y="645" />
      <point x="543" y="649" />
      <point x="532" y="649" type="qcurve" />
      <point x="524" y="649" />
      <point x="509" y="642" />
      <point x="496" y="626" />
      <point x="490" y="614" type="qcurve" />
      <point x="328" y="277" type="line" />
      <point x="328" y="0" type="line" />
    </contour>
  </outline>
</glyph>
